<svg xmlns="http://www.w3.org/2000/svg" xmlns:xlink="http://www.w3.org/1999/xlink" width="1080" zoomAndPan="magnify" viewBox="0 0 810 809.999993" height="1080" preserveAspectRatio="xMidYMid meet" version="1.0"><defs><clipPath id="34ef01c77a"><path d="M 17.144531 17.144531 L 792.644531 17.144531 L 792.644531 792.644531 L 17.144531 792.644531 Z M 17.144531 17.144531 " clip-rule="nonzero"/></clipPath></defs><g clip-path="url(#34ef01c77a)"><path fill="#000309" d="M 792.878906 405.011719 C 792.878906 411.359375 792.722656 417.703125 792.410156 424.042969 C 792.097656 430.382812 791.632812 436.710938 791.007812 443.027344 C 790.386719 449.34375 789.609375 455.644531 788.679688 461.921875 C 787.746094 468.199219 786.664062 474.453125 785.425781 480.679688 C 784.1875 486.90625 782.796875 493.097656 781.253906 499.253906 C 779.710938 505.410156 778.019531 511.527344 776.175781 517.601562 C 774.332031 523.675781 772.34375 529.703125 770.203125 535.679688 C 768.066406 541.65625 765.78125 547.574219 763.351562 553.441406 C 760.921875 559.304688 758.351562 565.105469 755.636719 570.84375 C 752.925781 576.582031 750.070312 582.25 747.078125 587.847656 C 744.085938 593.445312 740.957031 598.96875 737.695312 604.414062 C 734.433594 609.855469 731.035156 615.21875 727.511719 620.496094 C 723.984375 625.773438 720.328125 630.960938 716.546875 636.0625 C 712.765625 641.160156 708.863281 646.164062 704.835938 651.070312 C 700.808594 655.976562 696.664062 660.78125 692.402344 665.484375 C 688.136719 670.1875 683.761719 674.785156 679.273438 679.273438 C 674.785156 683.761719 670.191406 688.136719 665.488281 692.398438 C 660.785156 696.660156 655.976562 700.808594 651.070312 704.832031 C 646.164062 708.859375 641.160156 712.765625 636.0625 716.546875 C 630.964844 720.328125 625.777344 723.980469 620.5 727.507812 C 615.222656 731.035156 609.859375 734.429688 604.414062 737.691406 C 598.96875 740.957031 593.449219 744.085938 587.851562 747.078125 C 582.253906 750.070312 576.585938 752.921875 570.847656 755.636719 C 565.109375 758.351562 559.308594 760.921875 553.441406 763.351562 C 547.578125 765.78125 541.65625 768.0625 535.679688 770.203125 C 529.703125 772.339844 523.679688 774.332031 517.605469 776.171875 C 511.53125 778.015625 505.414062 779.707031 499.257812 781.25 C 493.097656 782.792969 486.90625 784.183594 480.679688 785.421875 C 474.457031 786.660156 468.203125 787.746094 461.925781 788.675781 C 455.644531 789.609375 449.347656 790.386719 443.03125 791.007812 C 436.714844 791.628906 430.382812 792.097656 424.042969 792.40625 C 417.703125 792.71875 411.359375 792.875 405.011719 792.875 C 398.664062 792.875 392.320312 792.71875 385.980469 792.40625 C 379.640625 792.097656 373.3125 791.628906 366.996094 791.007812 C 360.679688 790.386719 354.378906 789.609375 348.101562 788.675781 C 341.824219 787.746094 335.570312 786.660156 329.34375 785.421875 C 323.117188 784.183594 316.925781 782.792969 310.769531 781.25 C 304.613281 779.707031 298.496094 778.015625 292.421875 776.171875 C 286.347656 774.332031 280.320312 772.339844 274.34375 770.203125 C 268.367188 768.0625 262.449219 765.78125 256.582031 763.351562 C 250.71875 760.921875 244.917969 758.351562 239.179688 755.636719 C 233.441406 752.921875 227.773438 750.070312 222.175781 747.078125 C 216.578125 744.085938 211.054688 740.957031 205.609375 737.691406 C 200.167969 734.429688 194.804688 731.035156 189.527344 727.507812 C 184.25 723.980469 179.0625 720.328125 173.960938 716.546875 C 168.863281 712.765625 163.859375 708.859375 158.953125 704.832031 C 154.046875 700.808594 149.242188 696.660156 144.539062 692.398438 C 139.835938 688.136719 135.238281 683.761719 130.75 679.273438 C 126.261719 674.785156 121.886719 670.1875 117.625 665.484375 C 113.363281 660.78125 109.214844 655.976562 105.191406 651.070312 C 101.164062 646.164062 97.257812 641.160156 93.476562 636.0625 C 89.695312 630.960938 86.042969 625.773438 82.515625 620.496094 C 78.988281 615.21875 75.59375 609.855469 72.332031 604.414062 C 69.066406 598.96875 65.9375 593.445312 62.945312 587.847656 C 59.953125 582.25 57.101562 576.582031 54.386719 570.84375 C 51.671875 565.105469 49.101562 559.304688 46.671875 553.441406 C 44.242188 547.574219 41.960938 541.65625 39.820312 535.679688 C 37.683594 529.703125 35.691406 523.675781 33.851562 517.601562 C 32.007812 511.527344 30.316406 505.410156 28.773438 499.253906 C 27.230469 493.097656 25.839844 486.90625 24.601562 480.679688 C 23.363281 474.453125 22.277344 468.199219 21.347656 461.921875 C 20.414062 455.644531 19.636719 449.34375 19.015625 443.027344 C 18.394531 436.710938 17.925781 430.382812 17.617188 424.042969 C 17.304688 417.703125 17.148438 411.359375 17.148438 405.011719 C 17.148438 398.664062 17.304688 392.320312 17.617188 385.980469 C 17.925781 379.640625 18.394531 373.308594 19.015625 366.992188 C 19.636719 360.675781 20.414062 354.378906 21.347656 348.097656 C 22.277344 341.820312 23.363281 335.566406 24.601562 329.34375 C 25.839844 323.117188 27.230469 316.925781 28.773438 310.765625 C 30.316406 304.609375 32.007812 298.492188 33.851562 292.417969 C 35.691406 286.34375 37.683594 280.320312 39.820312 274.34375 C 41.960938 268.367188 44.242188 262.445312 46.671875 256.582031 C 49.101562 250.714844 51.671875 244.914062 54.386719 239.175781 C 57.101562 233.4375 59.953125 227.769531 62.945312 222.171875 C 65.9375 216.574219 69.066406 211.054688 72.332031 205.609375 C 75.59375 200.164062 78.988281 194.800781 82.515625 189.523438 C 86.042969 184.246094 89.695312 179.058594 93.476562 173.960938 C 97.257812 168.863281 101.164062 163.859375 105.191406 158.953125 C 109.214844 154.046875 113.363281 149.238281 117.625 144.535156 C 121.886719 139.832031 126.261719 135.238281 130.75 130.75 C 135.238281 126.261719 139.835938 121.882812 144.539062 117.621094 C 149.242188 113.359375 154.046875 109.214844 158.953125 105.1875 C 163.859375 101.160156 168.863281 97.257812 173.960938 93.476562 C 179.0625 89.695312 184.25 86.039062 189.527344 82.511719 C 194.804688 78.988281 200.167969 75.589844 205.609375 72.328125 C 211.054688 69.066406 216.578125 65.9375 222.175781 62.945312 C 227.773438 59.953125 233.441406 57.097656 239.179688 54.386719 C 244.917969 51.671875 250.71875 49.097656 256.582031 46.671875 C 262.449219 44.242188 268.367188 41.957031 274.34375 39.820312 C 280.320312 37.679688 286.347656 35.691406 292.421875 33.847656 C 298.496094 32.003906 304.613281 30.3125 310.769531 28.769531 C 316.925781 27.226562 323.117188 25.835938 329.34375 24.597656 C 335.570312 23.359375 341.824219 22.277344 348.101562 21.34375 C 354.378906 20.414062 360.679688 19.636719 366.996094 19.015625 C 373.3125 18.390625 379.640625 17.925781 385.980469 17.613281 C 392.320312 17.300781 398.664062 17.144531 405.011719 17.144531 C 411.359375 17.144531 417.703125 17.300781 424.042969 17.613281 C 430.382812 17.925781 436.714844 18.390625 443.03125 19.015625 C 449.347656 19.636719 455.644531 20.414062 461.925781 21.34375 C 468.203125 22.277344 474.457031 23.359375 480.679688 24.597656 C 486.90625 25.835938 493.097656 27.226562 499.257812 28.769531 C 505.414062 30.3125 511.53125 32.003906 517.605469 33.847656 C 523.679688 35.691406 529.703125 37.679688 535.679688 39.820312 C 541.65625 41.957031 547.578125 44.242188 553.441406 46.671875 C 559.308594 49.097656 565.109375 51.671875 570.847656 54.386719 C 576.585938 57.097656 582.253906 59.953125 587.851562 62.945312 C 593.449219 65.9375 598.96875 69.066406 604.414062 72.328125 C 609.859375 75.589844 615.222656 78.988281 620.5 82.511719 C 625.777344 86.039062 630.964844 89.695312 636.0625 93.476562 C 641.160156 97.257812 646.164062 101.160156 651.070312 105.1875 C 655.976562 109.214844 660.785156 113.359375 665.488281 117.621094 C 670.191406 121.882812 674.785156 126.261719 679.273438 130.75 C 683.761719 135.238281 688.136719 139.832031 692.402344 144.535156 C 696.664062 149.238281 700.808594 154.046875 704.835938 158.953125 C 708.863281 163.859375 712.765625 168.863281 716.546875 173.960938 C 720.328125 179.058594 723.984375 184.246094 727.511719 189.523438 C 731.035156 194.800781 734.433594 200.164062 737.695312 205.609375 C 740.957031 211.054688 744.085938 216.574219 747.078125 222.171875 C 750.070312 227.769531 752.925781 233.4375 755.636719 239.175781 C 758.351562 244.914062 760.921875 250.714844 763.351562 256.582031 C 765.78125 262.445312 768.066406 268.367188 770.203125 274.34375 C 772.34375 280.320312 774.332031 286.34375 776.175781 292.417969 C 778.019531 298.492188 779.710938 304.609375 781.253906 310.765625 C 782.796875 316.925781 784.1875 323.117188 785.425781 329.34375 C 786.664062 335.566406 787.746094 341.820312 788.679688 348.097656 C 789.609375 354.378906 790.386719 360.675781 791.007812 366.992188 C 791.632812 373.308594 792.097656 379.640625 792.410156 385.980469 C 792.722656 392.320312 792.878906 398.664062 792.878906 405.011719 Z M 792.878906 405.011719 " fill-opacity="1" fill-rule="nonzero"/></g><path fill="#f2f4ff" d="M 754.527344 405.011719 C 754.527344 410.734375 754.386719 416.449219 754.105469 422.164062 C 753.824219 427.875 753.402344 433.578125 752.84375 439.269531 C 752.28125 444.964844 751.582031 450.640625 750.742188 456.296875 C 749.90625 461.957031 748.925781 467.589844 747.8125 473.199219 C 746.695312 478.808594 745.441406 484.390625 744.050781 489.9375 C 742.664062 495.488281 741.136719 500.996094 739.476562 506.472656 C 737.816406 511.945312 736.023438 517.375 734.09375 522.761719 C 732.167969 528.144531 730.109375 533.480469 727.921875 538.765625 C 725.734375 544.050781 723.414062 549.277344 720.96875 554.449219 C 718.523438 559.621094 715.953125 564.726562 713.257812 569.773438 C 710.558594 574.816406 707.742188 579.792969 704.800781 584.699219 C 701.859375 589.605469 698.800781 594.4375 695.621094 599.191406 C 692.445312 603.949219 689.152344 608.625 685.746094 613.21875 C 682.335938 617.8125 678.820312 622.320312 675.191406 626.742188 C 671.5625 631.164062 667.828125 635.492188 663.984375 639.730469 C 660.144531 643.96875 656.203125 648.113281 652.15625 652.15625 C 648.113281 656.199219 643.96875 660.144531 639.730469 663.984375 C 635.492188 667.828125 631.164062 671.5625 626.742188 675.191406 C 622.320312 678.820312 617.8125 682.335938 613.21875 685.746094 C 608.625 689.152344 603.949219 692.445312 599.191406 695.621094 C 594.4375 698.800781 589.605469 701.859375 584.699219 704.800781 C 579.792969 707.742188 574.816406 710.558594 569.773438 713.257812 C 564.726562 715.953125 559.621094 718.523438 554.449219 720.96875 C 549.277344 723.414062 544.050781 725.734375 538.765625 727.921875 C 533.480469 730.109375 528.144531 732.167969 522.761719 734.09375 C 517.375 736.023438 511.945312 737.816406 506.472656 739.476562 C 500.996094 741.136719 495.488281 742.664062 489.9375 744.050781 C 484.390625 745.441406 478.808594 746.695312 473.199219 747.8125 C 467.589844 748.925781 461.957031 749.90625 456.296875 750.742188 C 450.640625 751.582031 444.964844 752.28125 439.269531 752.84375 C 433.578125 753.40625 427.875 753.824219 422.164062 754.105469 C 416.449219 754.386719 410.734375 754.527344 405.011719 754.527344 C 399.292969 754.527344 393.578125 754.386719 387.863281 754.105469 C 382.148438 753.824219 376.445312 753.40625 370.753906 752.84375 C 365.0625 752.28125 359.386719 751.582031 353.730469 750.742188 C 348.070312 749.90625 342.4375 748.925781 336.828125 747.8125 C 331.214844 746.695312 325.636719 745.441406 320.089844 744.050781 C 314.539062 742.664062 309.027344 741.136719 303.554688 739.476562 C 298.082031 737.816406 292.652344 736.023438 287.265625 734.09375 C 281.878906 732.167969 276.542969 730.109375 271.261719 727.921875 C 265.976562 725.734375 260.746094 723.414062 255.578125 720.96875 C 250.40625 718.523438 245.296875 715.953125 240.253906 713.257812 C 235.207031 710.558594 230.234375 707.742188 225.328125 704.800781 C 220.421875 701.859375 215.589844 698.800781 210.832031 695.621094 C 206.078125 692.445312 201.402344 689.152344 196.808594 685.746094 C 192.214844 682.335938 187.707031 678.820312 183.285156 675.191406 C 178.863281 671.5625 174.53125 667.828125 170.292969 663.984375 C 166.054688 660.144531 161.914062 656.203125 157.871094 652.15625 C 153.824219 648.113281 149.882812 643.96875 146.039062 639.730469 C 142.199219 635.492188 138.464844 631.164062 134.835938 626.742188 C 131.207031 622.320312 127.6875 617.8125 124.28125 613.21875 C 120.875 608.625 117.582031 603.949219 114.402344 599.191406 C 111.226562 594.4375 108.164062 589.605469 105.226562 584.699219 C 102.285156 579.792969 99.464844 574.816406 96.769531 569.773438 C 94.074219 564.726562 91.5 559.621094 89.054688 554.449219 C 86.609375 549.277344 84.292969 544.050781 82.105469 538.765625 C 79.914062 533.480469 77.855469 528.144531 75.929688 522.761719 C 74.003906 517.375 72.210938 511.945312 70.550781 506.472656 C 68.890625 500.996094 67.363281 495.488281 65.972656 489.9375 C 64.582031 484.390625 63.332031 478.808594 62.214844 473.199219 C 61.097656 467.589844 60.121094 461.957031 59.28125 456.296875 C 58.441406 450.640625 57.742188 444.964844 57.183594 439.269531 C 56.621094 433.578125 56.199219 427.875 55.921875 422.164062 C 55.640625 416.449219 55.5 410.734375 55.5 405.011719 C 55.5 399.292969 55.640625 393.578125 55.921875 387.863281 C 56.199219 382.148438 56.621094 376.445312 57.183594 370.753906 C 57.742188 365.0625 58.441406 359.386719 59.28125 353.730469 C 60.121094 348.070312 61.097656 342.4375 62.214844 336.828125 C 63.332031 331.214844 64.582031 325.636719 65.972656 320.089844 C 67.363281 314.539062 68.890625 309.027344 70.550781 303.554688 C 72.210938 298.082031 74.003906 292.652344 75.929688 287.265625 C 77.855469 281.878906 79.914062 276.542969 82.105469 271.261719 C 84.292969 265.976562 86.609375 260.746094 89.054688 255.578125 C 91.5 250.40625 94.074219 245.296875 96.769531 240.253906 C 99.464844 235.207031 102.285156 230.234375 105.226562 225.328125 C 108.164062 220.421875 111.226562 215.589844 114.402344 210.832031 C 117.582031 206.078125 120.875 201.402344 124.28125 196.808594 C 127.6875 192.214844 131.207031 187.707031 134.835938 183.285156 C 138.464844 178.863281 142.199219 174.53125 146.039062 170.292969 C 149.882812 166.054688 153.824219 161.914062 157.871094 157.871094 C 161.914062 153.824219 166.054688 149.882812 170.292969 146.039062 C 174.53125 142.199219 178.863281 138.464844 183.285156 134.835938 C 187.707031 131.207031 192.214844 127.6875 196.808594 124.28125 C 201.402344 120.875 206.078125 117.582031 210.832031 114.402344 C 215.589844 111.226562 220.421875 108.164062 225.328125 105.226562 C 230.234375 102.285156 235.207031 99.464844 240.253906 96.769531 C 245.296875 94.074219 250.40625 91.5 255.578125 89.054688 C 260.746094 86.609375 265.976562 84.292969 271.261719 82.105469 C 276.542969 79.914062 281.878906 77.855469 287.265625 75.929688 C 292.652344 74.003906 298.082031 72.210938 303.554688 70.550781 C 309.027344 68.890625 314.539062 67.363281 320.089844 65.972656 C 325.636719 64.582031 331.214844 63.332031 336.828125 62.214844 C 342.4375 61.097656 348.070312 60.121094 353.730469 59.28125 C 359.386719 58.441406 365.0625 57.742188 370.753906 57.183594 C 376.445312 56.621094 382.148438 56.199219 387.863281 55.921875 C 393.578125 55.640625 399.292969 55.5 405.011719 55.5 C 410.734375 55.5 416.449219 55.640625 422.164062 55.921875 C 427.875 56.199219 433.578125 56.621094 439.269531 57.183594 C 444.964844 57.742188 450.640625 58.441406 456.296875 59.28125 C 461.957031 60.121094 467.589844 61.097656 473.199219 62.214844 C 478.808594 63.332031 484.390625 64.582031 489.9375 65.972656 C 495.488281 67.363281 500.996094 68.890625 506.472656 70.550781 C 511.945312 72.210938 517.375 74.003906 522.761719 75.929688 C 528.144531 77.855469 533.480469 79.914062 538.765625 82.105469 C 544.050781 84.292969 549.277344 86.609375 554.449219 89.054688 C 559.621094 91.5 564.726562 94.074219 569.773438 96.769531 C 574.816406 99.464844 579.792969 102.285156 584.699219 105.226562 C 589.605469 108.164062 594.4375 111.226562 599.191406 114.402344 C 603.949219 117.582031 608.625 120.875 613.21875 124.28125 C 617.8125 127.6875 622.320312 131.207031 626.742188 134.835938 C 631.164062 138.464844 635.492188 142.199219 639.730469 146.039062 C 643.96875 149.882812 648.113281 153.824219 652.15625 157.871094 C 656.199219 161.914062 660.144531 166.054688 663.984375 170.292969 C 667.828125 174.53125 671.5625 178.863281 675.191406 183.285156 C 678.820312 187.707031 682.335938 192.214844 685.746094 196.808594 C 689.152344 201.402344 692.445312 206.078125 695.621094 210.832031 C 698.800781 215.589844 701.859375 220.421875 704.800781 225.328125 C 707.742188 230.234375 710.558594 235.207031 713.257812 240.253906 C 715.953125 245.296875 718.523438 250.40625 720.96875 255.578125 C 723.414062 260.746094 725.734375 265.976562 727.921875 271.261719 C 730.109375 276.542969 732.167969 281.878906 734.09375 287.265625 C 736.023438 292.652344 737.816406 298.082031 739.476562 303.554688 C 741.136719 309.027344 742.664062 314.539062 744.050781 320.089844 C 745.441406 325.636719 746.695312 331.214844 747.8125 336.828125 C 748.925781 342.4375 749.90625 348.070312 750.742188 353.730469 C 751.582031 359.386719 752.28125 365.0625 752.84375 370.753906 C 753.402344 376.445312 753.824219 382.148438 754.105469 387.863281 C 754.386719 393.578125 754.527344 399.292969 754.527344 405.011719 Z M 754.527344 405.011719 " fill-opacity="1" fill-rule="nonzero"/><path fill="#000309" d="M 222.445312 313.746094 L 83.992188 393.042969 C 83.84375 397.019531 83.746094 401.003906 83.746094 405.011719 C 83.746094 514.539062 138.566406 611.242188 222.257812 669.238281 Z M 575.265625 292.4375 L 575.726562 132.832031 C 526.265625 101.742188 467.742188 83.746094 405.011719 83.746094 C 355.742188 83.746094 309.066406 94.851562 267.335938 114.675781 Z M 234.757812 517.582031 L 234.296875 677.191406 C 283.757812 708.273438 342.277344 726.273438 405.011719 726.273438 C 454.28125 726.273438 500.957031 715.164062 542.683594 695.34375 Z M 392.492188 201.289062 L 84.773438 379.289062 C 93.652344 267.226562 160.035156 171.363281 254.414062 121.183594 Z M 417.535156 608.730469 L 725.253906 430.738281 C 716.371094 542.796875 649.992188 638.660156 555.609375 688.84375 Z M 587.574219 496.273438 L 726.03125 416.976562 C 726.179688 413.003906 726.277344 409.019531 726.277344 405.011719 C 726.277344 295.484375 671.457031 198.777344 587.769531 140.785156 Z M 587.574219 496.273438 " fill-opacity="1" fill-rule="evenodd"/><path fill="#000309" d="M 361.207031 254.410156 C 444.355469 230.234375 531.421875 278.03125 555.605469 361.214844 C 579.816406 444.359375 531.980469 531.398438 448.804688 555.613281 C 365.621094 579.789062 278.585938 531.984375 254.40625 448.808594 C 230.226562 365.625 278.027344 278.589844 361.207031 254.410156 Z M 361.207031 254.410156 " fill-opacity="1" fill-rule="evenodd"/><path fill="#f2f4ff" d="M 298.6875 372.289062 C 298.351562 379.613281 292.277344 385.425781 284.882812 385.375 C 277.324219 385.324219 270.589844 378.863281 271.273438 371.128906 C 274.335938 336.542969 301.496094 305.007812 331.691406 289.777344 C 338.597656 286.292969 346.992188 289.796875 350.019531 296.765625 C 353.007812 303.644531 349.742188 311.367188 343.179688 314.695312 C 323.453125 324.691406 303.042969 350.40625 298.6875 372.289062 Z M 298.6875 372.289062 " fill-opacity="1" fill-rule="evenodd"/><path fill="#f2f4ff" d="M 389.957031 282.1875 C 389.957031 283.097656 389.867188 284.003906 389.6875 284.898438 C 389.511719 285.792969 389.246094 286.660156 388.898438 287.503906 C 388.546875 288.347656 388.121094 289.148438 387.613281 289.90625 C 387.105469 290.664062 386.53125 291.367188 385.886719 292.011719 C 385.242188 292.65625 384.539062 293.230469 383.78125 293.738281 C 383.023438 294.246094 382.222656 294.671875 381.378906 295.023438 C 380.535156 295.371094 379.667969 295.636719 378.773438 295.8125 C 377.878906 295.992188 376.972656 296.078125 376.0625 296.078125 C 375.148438 296.078125 374.246094 295.992188 373.351562 295.8125 C 372.457031 295.636719 371.585938 295.371094 370.746094 295.023438 C 369.902344 294.671875 369.101562 294.246094 368.34375 293.738281 C 367.585938 293.230469 366.882812 292.65625 366.238281 292.011719 C 365.59375 291.367188 365.015625 290.664062 364.511719 289.90625 C 364.003906 289.148438 363.574219 288.347656 363.226562 287.503906 C 362.875 286.660156 362.613281 285.792969 362.433594 284.898438 C 362.257812 284.003906 362.167969 283.097656 362.167969 282.1875 C 362.167969 281.273438 362.257812 280.371094 362.433594 279.476562 C 362.613281 278.582031 362.875 277.710938 363.226562 276.871094 C 363.574219 276.027344 364.003906 275.226562 364.511719 274.46875 C 365.015625 273.710938 365.59375 273.007812 366.238281 272.363281 C 366.882812 271.71875 367.585938 271.140625 368.34375 270.632812 C 369.101562 270.128906 369.902344 269.699219 370.746094 269.351562 C 371.585938 269 372.457031 268.738281 373.351562 268.558594 C 374.246094 268.382812 375.148438 268.292969 376.0625 268.292969 C 376.972656 268.292969 377.878906 268.382812 378.773438 268.558594 C 379.667969 268.738281 380.535156 269 381.378906 269.351562 C 382.222656 269.699219 383.023438 270.128906 383.78125 270.632812 C 384.539062 271.140625 385.242188 271.71875 385.886719 272.363281 C 386.53125 273.007812 387.105469 273.710938 387.613281 274.46875 C 388.121094 275.226562 388.546875 276.027344 388.898438 276.871094 C 389.246094 277.710938 389.511719 278.582031 389.6875 279.476562 C 389.867188 280.371094 389.957031 281.273438 389.957031 282.1875 Z M 389.957031 282.1875 " fill-opacity="1" fill-rule="nonzero"/></svg>