<svg xmlns="http://www.w3.org/2000/svg" xmlns:xlink="http://www.w3.org/1999/xlink" width="4032" zoomAndPan="magnify" viewBox="0 0 3024 2268.00001" height="3024" preserveAspectRatio="xMidYMid meet" version="1.0"><defs><clipPath id="0127c3080d"><path d="M 0.667969 0 L 2267.667969 0 L 2267.667969 2267 L 0.667969 2267 Z M 0.667969 0 " clip-rule="nonzero"/></clipPath></defs><g clip-path="url(#0127c3080d)"><path fill="#4b4b4b" d="M 285.457031 951.289062 L 0.667969 951.289062 L 0.667969 943.855469 L 285.46875 943.855469 C 287.859375 943.855469 290.230469 943.855469 292.609375 943.855469 C 297.03125 943.855469 301.453125 943.84375 305.859375 943.898438 C 313.695312 944.171875 321.355469 947.878906 326.421875 953.816406 C 328.972656 956.777344 330.921875 960.300781 332.046875 963.972656 C 333.28125 967.804688 333.382812 971.804688 333.304688 975.207031 L 333.304688 1036.15625 C 333.316406 1037.039062 333.304688 1037.980469 333.304688 1038.921875 C 333.28125 1041.300781 333.269531 1043.546875 333.632812 1045.664062 C 334.121094 1048.5 335.207031 1051.253906 336.78125 1053.65625 C 339.898438 1058.472656 345.160156 1061.898438 350.839844 1062.828125 C 352.96875 1063.1875 355.214844 1063.179688 357.570312 1063.15625 C 358.535156 1063.15625 359.488281 1063.144531 360.449219 1063.15625 L 513.550781 1063.15625 C 516.5 1063.179688 519.277344 1063.199219 521.625 1062.269531 C 524.285156 1061.339844 526.585938 1059.742188 528.433594 1057.578125 C 530.226562 1055.402344 531.417969 1052.875 531.824219 1050.300781 C 532.128906 1048.328125 532.109375 1046.230469 532.085938 1044 C 532.074219 1042.875 532.0625 1041.765625 532.085938 1040.644531 L 532.085938 1032.175781 C 516.171875 1029.945312 503.929688 1016.273438 503.929688 999.746094 C 503.929688 981.65625 518.597656 966.988281 536.6875 966.988281 C 554.777344 966.988281 569.445312 981.65625 569.445312 999.746094 C 569.445312 1016.886719 556.285156 1030.941406 539.507812 1032.378906 L 539.507812 1040.734375 C 539.488281 1041.855469 539.5 1042.886719 539.507812 1043.910156 C 539.53125 1046.34375 539.566406 1048.851562 539.160156 1051.457031 C 538.535156 1055.355469 536.789062 1059.121094 534.113281 1062.363281 C 531.371094 1065.570312 527.960938 1067.9375 524.207031 1069.230469 C 521.136719 1070.453125 517.859375 1070.601562 514.832031 1070.601562 C 514.378906 1070.601562 513.925781 1070.601562 513.484375 1070.601562 L 512.917969 1070.601562 C 512.917969 1070.601562 360.371094 1070.601562 360.371094 1070.601562 C 359.40625 1070.589844 358.511719 1070.601562 357.617188 1070.601562 C 355.03125 1070.625 352.359375 1070.648438 349.601562 1070.183594 C 341.894531 1068.914062 334.765625 1064.265625 330.539062 1057.75 C 328.417969 1054.519531 326.945312 1050.777344 326.285156 1046.957031 C 325.800781 1044.191406 325.820312 1041.492188 325.84375 1038.898438 C 325.84375 1038.015625 325.855469 1037.128906 325.84375 1036.246094 L 325.84375 975.148438 C 325.914062 972.144531 325.84375 969.050781 324.925781 966.230469 C 324.089844 963.464844 322.648438 960.878906 320.753906 958.679688 C 317.003906 954.28125 311.359375 951.550781 305.65625 951.359375 C 301.351562 951.289062 296.976562 951.300781 292.597656 951.3125 C 290.207031 951.3125 287.828125 951.3125 285.4375 951.3125 Z M 451.730469 1974.683594 C 434.796875 1974.683594 420.84375 1987.46875 418.996094 2003.914062 L 0.667969 2003.914062 L 0.667969 2011.351562 L 418.996094 2011.351562 C 420.84375 2027.796875 434.785156 2040.582031 451.730469 2040.582031 C 469.925781 2040.582031 484.683594 2025.835938 484.683594 2007.632812 C 484.683594 1989.429688 469.933594 1974.683594 451.730469 1974.683594 Z M 335.84375 2053.085938 C 318.90625 2053.085938 304.953125 2065.871094 303.105469 2082.320312 L 221.347656 2082.320312 C 219.25 2082.296875 217.152344 2082.320312 215.054688 2082.726562 C 204.199219 2084.425781 194.789062 2093.066406 192.195312 2103.617188 C 191.535156 2105.929688 191.242188 2108.425781 191.242188 2111.6875 L 191.242188 2234.886719 C 191.265625 2238.765625 191.285156 2242.425781 189.902344 2245.769531 C 189.246094 2247.640625 188.285156 2249.410156 187.015625 2251.074219 C 185.859375 2252.671875 184.429688 2254.089844 182.742188 2255.347656 C 181.175781 2256.550781 179.417969 2257.511719 177.425781 2258.238281 C 175.679688 2258.917969 173.71875 2259.339844 171.800781 2259.472656 C 159.550781 2259.585938 147.082031 2259.566406 135.007812 2259.566406 C 128.265625 2259.566406 121.519531 2259.566406 114.777344 2259.566406 L 0.667969 2259.566406 L 0.667969 2267 L 114.789062 2267 C 121.519531 2267 128.265625 2267 134.996094 2267 C 138.660156 2267 142.363281 2267 146.09375 2267 C 154.652344 2267 163.367188 2266.976562 172.074219 2266.898438 C 174.964844 2266.707031 177.671875 2266.117188 180.03125 2265.199219 C 182.660156 2264.246094 185.097656 2262.921875 187.207031 2261.289062 C 189.449219 2259.632812 191.410156 2257.660156 192.964844 2255.519531 C 194.652344 2253.308594 195.96875 2250.859375 196.828125 2248.433594 C 198.699219 2243.890625 198.675781 2239.09375 198.65625 2234.867188 L 198.65625 2111.699219 C 198.65625 2109.148438 198.859375 2107.277344 199.359375 2105.523438 C 201.285156 2097.679688 208.210938 2091.320312 216.324219 2090.050781 C 217.855469 2089.753906 219.5 2089.765625 221.335938 2089.753906 L 303.09375 2089.753906 C 304.941406 2106.203125 318.886719 2118.988281 335.832031 2118.988281 C 354.023438 2118.988281 368.78125 2104.242188 368.78125 2086.039062 C 368.78125 2067.832031 354.035156 2053.085938 335.832031 2053.085938 Z M 312.683594 230.949219 L 0.667969 230.949219 L 0.667969 223.515625 L 312.683594 223.515625 C 314.238281 214.730469 321.140625 207.816406 329.925781 206.273438 L 329.925781 185.179688 C 329.925781 184.523438 329.925781 183.886719 329.925781 183.265625 C 329.925781 181.054688 329.902344 178.765625 330.242188 176.40625 C 331.035156 170.273438 334.050781 164.378906 338.753906 159.859375 C 343.175781 155.527344 349.195312 152.761719 355.667969 152.070312 C 359.53125 151.890625 363.203125 151.910156 366.742188 151.933594 C 368.667969 151.933594 370.59375 151.957031 372.523438 151.933594 L 454.351562 151.933594 C 455.980469 142.683594 463.566406 135.488281 473.019531 134.480469 L 473.019531 59.03125 C 473.019531 57.175781 473.03125 55.246094 473.402344 53.21875 C 474.0625 48.761719 475.910156 44.367188 478.742188 40.660156 C 484.160156 33.222656 493.375 28.859375 502.785156 29.234375 L 600.945312 29.234375 C 602.792969 12.785156 616.734375 0 633.679688 0 C 651.875 0 666.632812 14.746094 666.632812 32.949219 C 666.632812 51.15625 651.886719 65.902344 633.679688 65.902344 C 616.734375 65.902344 602.792969 53.117188 600.945312 36.667969 L 502.625 36.667969 C 495.632812 36.375 488.660156 39.683594 484.703125 45.101562 C 482.597656 47.878906 481.238281 51.085938 480.738281 54.441406 C 480.464844 55.9375 480.453125 57.457031 480.453125 59.066406 L 480.453125 65.9375 C 480.453125 65.9375 480.453125 135.011719 480.453125 135.011719 C 488.558594 137.019531 494.816406 143.648438 496.277344 151.945312 L 727.535156 151.945312 C 728.847656 151.910156 730.222656 151.992188 731.59375 152.058594 L 732.195312 152.105469 C 733.792969 152.332031 735.253906 152.546875 736.773438 153 C 749.195312 156.140625 758.242188 168.335938 757.675781 181.324219 L 757.675781 304.992188 C 757.605469 307.949219 757.832031 310.214844 758.367188 312.210938 C 759.5 316.78125 762.195312 320.835938 765.984375 323.714844 C 769.585938 326.550781 774.257812 328.148438 779.097656 328.070312 L 979.136719 328.070312 C 980.984375 311.621094 994.925781 298.835938 1011.875 298.835938 C 1030.066406 298.835938 1044.824219 313.582031 1044.824219 331.785156 C 1044.824219 349.992188 1030.078125 364.738281 1011.875 364.738281 C 994.925781 364.738281 980.984375 351.953125 979.136719 335.503906 L 779.019531 335.503906 C 772.523438 335.503906 766.289062 333.40625 761.4375 329.609375 C 756.359375 325.757812 752.699219 320.226562 751.167969 314.09375 C 750.464844 311.472656 750.160156 308.539062 750.238281 304.921875 L 750.238281 181.179688 C 750.648438 171.632812 743.855469 162.476562 734.789062 160.175781 C 733.644531 159.835938 732.511719 159.675781 731.308594 159.496094 L 731.183594 159.496094 C 729.996094 159.425781 728.804688 159.347656 727.589844 159.382812 L 496.253906 159.382812 C 494.792969 167.679688 488.535156 174.308594 480.429688 176.316406 L 480.429688 198.511719 C 480.464844 202.761719 480.511719 207.351562 478.855469 211.726562 C 475.953125 220.464844 468.519531 227.492188 459.519531 229.90625 C 456.289062 230.871094 453.035156 230.972656 449.871094 230.972656 C 449.441406 230.972656 449.011719 230.972656 448.582031 230.972656 L 354.601562 230.972656 C 353.046875 239.757812 346.144531 246.660156 337.359375 248.214844 L 337.359375 284.257812 C 337.441406 287.886719 337.167969 290.707031 336.511719 293.359375 C 335.105469 299.378906 331.511719 304.945312 326.410156 308.96875 C 321.652344 312.8125 315.394531 314.976562 308.832031 315.046875 L 209.730469 315.046875 L 209.730469 307.609375 L 308.785156 307.609375 C 313.648438 307.5625 318.273438 305.976562 321.777344 303.15625 C 325.59375 300.140625 328.246094 296.058594 329.289062 291.605469 C 329.800781 289.5625 330.003906 287.332031 329.9375 284.328125 L 329.9375 248.203125 C 321.152344 246.648438 314.238281 239.746094 312.695312 230.960938 Z M 337.359375 183.230469 C 337.359375 183.886719 337.359375 184.554688 337.359375 185.214844 L 337.359375 206.273438 C 346.144531 207.828125 353.058594 214.730469 354.601562 223.515625 L 448.613281 223.515625 C 451.777344 223.539062 454.792969 223.550781 457.5 222.734375 C 464.121094 220.953125 469.71875 215.660156 471.863281 209.222656 C 473.074219 206.003906 473.042969 202.476562 473.007812 198.746094 L 473.007812 176.816406 C 463.554688 175.804688 455.972656 168.609375 454.339844 159.359375 L 372.554688 159.359375 C 370.628906 159.371094 368.667969 159.359375 366.707031 159.359375 C 363.261719 159.347656 359.679688 159.324219 356.210938 159.472656 C 351.621094 159.960938 347.175781 162 343.925781 165.183594 C 340.421875 168.550781 338.1875 172.894531 337.597656 177.402344 C 337.328125 179.273438 337.339844 181.191406 337.351562 183.21875 Z M 298.605469 625.976562 L 298.605469 650.109375 C 282.160156 651.957031 269.375 665.898438 269.375 682.84375 C 269.375 701.035156 284.121094 715.792969 302.324219 715.792969 C 320.527344 715.792969 335.277344 701.046875 335.277344 682.84375 C 335.277344 665.910156 322.488281 651.957031 306.042969 650.109375 L 306.042969 625.976562 C 314.828125 624.421875 321.742188 617.519531 323.28125 608.734375 L 352.527344 608.734375 C 354.375 625.183594 368.316406 637.96875 385.261719 637.96875 C 403.457031 637.96875 418.214844 623.222656 418.214844 605.015625 C 418.214844 586.8125 403.46875 572.066406 385.261719 572.066406 C 368.316406 572.066406 354.375 584.851562 352.527344 601.300781 L 323.28125 601.300781 C 321.730469 592.515625 314.828125 585.601562 306.042969 584.058594 L 306.042969 490.738281 C 306.054688 488.617188 306.066406 486.417969 305.714844 484.230469 C 305.339844 481.421875 304.5 478.65625 303.21875 476.058594 C 301.972656 473.417969 300.339844 471.027344 298.4375 469.019531 C 294.628906 464.847656 289.449219 461.855469 283.824219 460.5625 C 281.285156 460.007812 278.589844 459.757812 275.640625 459.839844 L 0.667969 459.839844 L 0.667969 467.273438 L 275.734375 467.273438 C 278.160156 467.21875 280.277344 467.386719 282.195312 467.816406 C 286.332031 468.757812 290.140625 470.96875 292.996094 474.085938 C 294.402344 475.570312 295.582031 477.292969 296.511719 479.277344 C 297.449219 481.195312 298.0625 483.199219 298.347656 485.308594 C 298.617188 486.984375 298.605469 488.789062 298.59375 490.703125 L 298.59375 584.058594 C 289.8125 585.613281 282.898438 592.515625 281.355469 601.300781 L 0.667969 601.300781 L 0.667969 608.734375 L 281.367188 608.734375 C 282.917969 617.519531 289.824219 624.433594 298.605469 625.976562 Z M 628.976562 633.617188 L 638.734375 633.617188 L 638.734375 582.109375 L 628.976562 582.109375 Z M 647.054688 633.617188 L 656.816406 633.617188 L 656.816406 582.109375 L 647.054688 582.109375 Z M 665.136719 633.617188 L 674.894531 633.617188 L 674.894531 582.109375 L 665.136719 582.109375 Z M 683.226562 633.617188 L 692.984375 633.617188 L 692.984375 582.109375 L 683.226562 582.109375 Z M 701.304688 633.617188 L 711.066406 633.617188 L 711.066406 582.109375 L 701.304688 582.109375 Z M 719.386719 633.617188 L 729.144531 633.617188 L 729.144531 582.109375 L 719.386719 582.109375 Z M 737.476562 633.617188 L 747.234375 633.617188 L 747.234375 582.109375 L 737.476562 582.109375 Z M 755.554688 633.617188 L 765.3125 633.617188 L 765.3125 582.109375 L 755.554688 582.109375 Z M 219.328125 2241.6875 L 252.382812 2241.6875 L 252.382812 2235.421875 L 219.328125 2235.421875 Z M 219.328125 2230.082031 L 252.382812 2230.082031 L 252.382812 2223.8125 L 219.328125 2223.8125 Z M 219.328125 2218.488281 L 252.382812 2218.488281 L 252.382812 2212.21875 L 219.328125 2212.21875 Z M 219.328125 2206.878906 L 252.382812 2206.878906 L 252.382812 2200.609375 L 219.328125 2200.609375 Z M 219.328125 2195.273438 L 252.382812 2195.273438 L 252.382812 2189.003906 L 219.328125 2189.003906 Z M 219.328125 2183.675781 L 252.382812 2183.675781 L 252.382812 2177.410156 L 219.328125 2177.410156 Z M 219.328125 2172.070312 L 252.382812 2172.070312 L 252.382812 2165.800781 L 219.328125 2165.800781 Z M 219.328125 2160.460938 L 252.382812 2160.460938 L 252.382812 2154.195312 L 219.328125 2154.195312 Z M 29.070312 876.933594 L 29.070312 931.875 L 39.488281 931.875 L 39.488281 876.933594 Z M 48.363281 876.933594 L 48.363281 931.875 L 58.78125 931.875 L 58.78125 876.933594 Z M 67.644531 876.933594 L 67.644531 931.875 L 78.0625 931.875 L 78.0625 876.933594 Z M 86.9375 876.933594 L 86.9375 931.875 L 97.355469 931.875 L 97.355469 876.933594 Z M 106.230469 876.933594 L 106.230469 931.875 L 116.644531 931.875 L 116.644531 876.933594 Z M 125.511719 876.933594 L 125.511719 931.875 L 135.925781 931.875 L 135.925781 876.933594 Z M 144.800781 876.933594 L 144.800781 931.875 L 155.21875 931.875 L 155.21875 876.933594 Z M 164.082031 876.933594 L 164.082031 931.875 L 174.5 931.875 L 174.5 876.933594 Z M 76.894531 170.773438 L 68.835938 170.773438 L 68.835938 213.269531 L 76.894531 213.269531 Z M 91.8125 170.773438 L 83.75 170.773438 L 83.75 213.269531 L 91.8125 213.269531 Z M 106.726562 170.773438 L 98.667969 170.773438 L 98.667969 213.269531 L 106.726562 213.269531 Z M 121.644531 170.773438 L 113.585938 170.773438 L 113.585938 213.269531 L 121.644531 213.269531 Z M 136.5625 170.773438 L 128.503906 170.773438 L 128.503906 213.269531 L 136.5625 213.269531 Z M 151.480469 170.773438 L 143.417969 170.773438 L 143.417969 213.269531 L 151.480469 213.269531 Z M 166.394531 170.773438 L 158.335938 170.773438 L 158.335938 213.269531 L 166.394531 213.269531 Z M 181.324219 170.773438 L 173.265625 170.773438 L 173.265625 213.269531 L 181.324219 213.269531 Z M 730.460938 202.238281 L 688.824219 202.238281 L 688.824219 210.128906 L 730.460938 210.128906 Z M 730.460938 216.863281 L 688.824219 216.863281 L 688.824219 224.75 L 730.460938 224.75 Z M 730.460938 231.472656 L 688.824219 231.472656 L 688.824219 239.363281 L 730.460938 239.363281 Z M 730.460938 246.09375 L 688.824219 246.09375 L 688.824219 253.984375 L 730.460938 253.984375 Z M 730.460938 260.707031 L 688.824219 260.707031 L 688.824219 268.59375 L 730.460938 268.59375 Z M 730.460938 275.328125 L 688.824219 275.328125 L 688.824219 283.214844 L 730.460938 283.214844 Z M 730.460938 289.9375 L 688.824219 289.9375 L 688.824219 297.828125 L 730.460938 297.828125 Z M 688.824219 312.449219 L 730.460938 312.449219 L 730.460938 304.558594 L 688.824219 304.558594 Z M 1101.386719 503.476562 L 1085.722656 491.585938 L 1086.117188 515.074219 Z M 1117.230469 503.476562 L 1101.566406 491.585938 L 1101.964844 515.074219 Z M 1133.089844 503.476562 L 1117.425781 491.585938 L 1117.820312 515.074219 Z M 1148.9375 503.476562 L 1133.269531 491.585938 L 1133.667969 515.074219 Z M 1164.792969 503.476562 L 1149.128906 491.585938 L 1149.527344 515.074219 Z M 1180.640625 503.476562 L 1164.976562 491.585938 L 1165.371094 515.074219 Z M 1196.496094 503.476562 L 1180.832031 491.585938 L 1181.230469 515.074219 Z M 702.824219 792.714844 L 703.300781 820.664062 L 721.460938 806.871094 Z M 721.6875 792.714844 L 722.160156 820.664062 L 740.320312 806.871094 Z M 740.546875 792.714844 L 741.023438 820.664062 L 759.183594 806.871094 Z M 759.410156 792.714844 L 759.882812 820.664062 L 778.042969 806.871094 Z M 778.269531 792.714844 L 778.746094 820.664062 L 796.90625 806.871094 Z M 797.132812 792.714844 L 797.609375 820.664062 L 815.765625 806.871094 Z M 815.992188 792.714844 L 816.46875 820.664062 L 834.628906 806.871094 Z M 303.492188 1201.851562 L 326.820312 1184.132812 L 302.890625 1165.953125 Z M 327.726562 1201.851562 L 351.054688 1184.132812 L 327.125 1165.953125 Z M 351.949219 1201.851562 L 375.277344 1184.132812 L 351.347656 1165.953125 Z M 399.5 1184.132812 L 375.570312 1165.953125 L 376.171875 1201.851562 Z M 423.734375 1184.132812 L 399.804688 1165.953125 L 400.40625 1201.851562 Z M 447.957031 1184.132812 L 424.027344 1165.953125 L 424.628906 1201.851562 Z M 472.179688 1184.132812 L 448.25 1165.953125 L 448.851562 1201.851562 Z M 59.746094 1663.976562 L 60.265625 1694.570312 L 80.148438 1679.472656 Z M 80.398438 1663.976562 L 80.917969 1694.570312 L 100.800781 1679.472656 Z M 101.050781 1663.976562 L 101.570312 1694.570312 L 121.453125 1679.472656 Z M 121.703125 1663.976562 L 122.222656 1694.570312 L 142.105469 1679.472656 Z M 142.34375 1663.976562 L 142.863281 1694.570312 L 162.746094 1679.472656 Z M 162.996094 1663.976562 L 163.515625 1694.570312 L 183.398438 1679.472656 Z M 183.648438 1663.976562 L 184.167969 1694.570312 L 204.050781 1679.472656 Z M 184.722656 1969.648438 L 185.085938 1991.09375 L 199.015625 1980.507812 Z M 199.199219 1969.648438 L 199.5625 1991.09375 L 213.492188 1980.507812 Z M 213.671875 1969.648438 L 214.035156 1991.09375 L 227.96875 1980.507812 Z M 228.136719 1969.648438 L 228.5 1991.09375 L 242.429688 1980.507812 Z M 242.613281 1969.648438 L 242.976562 1991.09375 L 256.90625 1980.507812 Z M 257.085938 1969.648438 L 257.449219 1991.09375 L 271.378906 1980.507812 Z M 271.550781 1969.648438 L 271.914062 1991.09375 L 285.84375 1980.507812 Z M 22.25 568.675781 L 22.578125 587.945312 L 35.101562 578.4375 Z M 35.261719 568.675781 L 35.589844 587.945312 L 48.113281 578.4375 Z M 48.273438 568.675781 L 48.601562 587.945312 L 61.128906 578.4375 Z M 61.273438 568.675781 L 61.601562 587.945312 L 74.128906 578.4375 Z M 74.289062 568.675781 L 74.617188 587.945312 L 87.140625 578.4375 Z M 87.289062 568.675781 L 87.617188 587.945312 L 100.140625 578.4375 Z M 100.300781 568.675781 L 100.628906 587.945312 L 113.15625 578.4375 Z M 2267.667969 335.480469 C 2267.667969 343.800781 2260.921875 350.558594 2252.589844 350.558594 C 2245.847656 350.558594 2240.132812 346.125 2238.21875 340.015625 L 1525.4375 340.015625 C 1524.203125 340.015625 1522.933594 340.015625 1521.664062 340.015625 C 1519.464844 340.015625 1517.1875 340.003906 1514.988281 340.074219 C 1511.949219 340.175781 1509.027344 340.808594 1506.316406 341.953125 C 1500.832031 344.265625 1496.195312 348.664062 1493.597656 354.015625 C 1492.296875 356.691406 1491.480469 359.535156 1491.183594 362.515625 L 1491.058594 364.941406 L 1491.058594 393.960938 C 1491.058594 393.960938 1491.058594 617.78125 1491.058594 617.78125 C 1498.121094 620.136719 1503.539062 626.078125 1505.136719 633.445312 L 1806.390625 633.445312 C 1808.316406 627.335938 1814.015625 622.902344 1820.761719 622.902344 C 1829.09375 622.902344 1835.835938 629.648438 1835.835938 637.980469 C 1835.835938 646.3125 1829.09375 653.054688 1820.761719 653.054688 C 1814.015625 653.054688 1808.304688 648.621094 1806.390625 642.511719 L 1505.136719 642.511719 C 1503.539062 649.890625 1498.121094 655.832031 1491.058594 658.179688 L 1491.058594 711.78125 C 1491.082031 713.84375 1490.992188 715.75 1490.800781 717.550781 L 1490.765625 717.8125 C 1490.71875 718.09375 1490.675781 718.378906 1490.640625 718.652344 C 1490.550781 719.308594 1490.449219 719.964844 1490.3125 720.613281 L 1490.265625 720.816406 L 1489.542969 723.613281 C 1488.316406 727.527344 1486.414062 731.140625 1483.886719 734.371094 C 1478.898438 740.789062 1471.460938 745.34375 1463.492188 746.863281 C 1460.933594 747.40625 1458.402344 747.476562 1455.945312 747.476562 C 1455.480469 747.476562 1455.015625 747.476562 1454.550781 747.476562 C 1453.746094 747.476562 1452.953125 747.476562 1452.160156 747.476562 L 1257.980469 747.476562 C 1256.222656 755.601562 1249.828125 761.984375 1241.703125 763.753906 L 1241.703125 938.425781 C 1241.703125 939.003906 1241.703125 939.570312 1241.703125 940.125 C 1241.703125 942.628906 1241.722656 945.226562 1241.269531 947.933594 C 1241.101562 949.386719 1240.738281 950.722656 1240.421875 951.902344 L 1239.855469 953.761719 C 1239.402344 955.007812 1238.902344 956.414062 1238.164062 957.796875 C 1235.242188 963.816406 1230.332031 968.996094 1224.3125 972.40625 C 1221.21875 974.085938 1218.035156 975.285156 1214.746094 976 C 1211.664062 976.613281 1208.707031 976.738281 1206.121094 976.738281 C 1205.691406 976.738281 1205.269531 976.738281 1204.875 976.738281 L 1044.835938 976.738281 L 1044.835938 967.667969 L 1204.929688 967.667969 C 1207.390625 967.703125 1210.214844 967.667969 1212.910156 967.136719 C 1215.257812 966.613281 1217.648438 965.71875 1219.917969 964.484375 C 1224.304688 962 1227.917969 958.183594 1230.039062 953.785156 L 1230.117188 953.625 C 1230.570312 952.785156 1230.933594 951.765625 1231.320312 950.6875 L 1231.464844 950.292969 L 1231.660156 949.554688 C 1231.921875 948.570312 1232.179688 947.640625 1232.261719 946.824219 L 1232.292969 946.550781 C 1232.632812 944.578125 1232.621094 942.449219 1232.613281 940.183594 C 1232.613281 939.59375 1232.613281 939.003906 1232.613281 938.414062 L 1232.613281 763.765625 C 1224.484375 762.007812 1218.101562 755.613281 1216.335938 747.488281 L 917.304688 747.488281 L 917.304688 811.859375 C 917.417969 816.597656 916.738281 820.734375 915.21875 824.417969 C 911.945312 832.554688 904.710938 839.003906 896.335938 841.214844 C 892.707031 842.292969 889.035156 842.28125 885.488281 842.257812 L 827.191406 842.257812 C 827.191406 842.257812 711.40625 842.257812 711.40625 842.257812 C 708.445312 842.234375 705.636719 842.234375 703.085938 842.9375 C 699.820312 843.789062 696.898438 845.320312 694.574219 847.382812 C 692.101562 849.535156 690.140625 852.234375 688.871094 855.179688 C 687.714844 857.914062 687.160156 861.144531 687.226562 864.769531 L 687.226562 905.382812 C 696.207031 907.050781 703.1875 914.328125 704.410156 923.453125 L 744.515625 923.453125 C 746.363281 907.003906 760.304688 894.21875 777.25 894.21875 C 795.441406 894.21875 810.203125 908.964844 810.203125 927.167969 C 810.203125 945.375 795.453125 960.121094 777.25 960.121094 C 760.304688 960.121094 746.363281 947.335938 744.515625 930.886719 L 704.128906 930.886719 C 702.316406 939.207031 695.636719 945.691406 687.226562 947.242188 L 687.226562 1062.828125 C 696.566406 1064.5625 703.765625 1072.382812 704.535156 1082.027344 L 776.886719 1081.972656 C 778.722656 1065.511719 792.675781 1052.714844 809.625 1052.714844 C 827.816406 1052.714844 842.574219 1067.460938 842.574219 1085.667969 C 842.574219 1103.871094 827.828125 1118.617188 809.625 1118.617188 C 792.6875 1118.617188 778.746094 1105.84375 776.886719 1089.40625 L 703.824219 1089.464844 C 701.667969 1097.226562 695.242188 1103.203125 687.214844 1104.6875 L 687.214844 1164.839844 C 703.664062 1166.6875 716.449219 1180.632812 716.449219 1197.578125 C 716.449219 1215.769531 701.703125 1230.527344 683.5 1230.527344 C 665.292969 1230.527344 650.546875 1215.78125 650.546875 1197.578125 C 650.546875 1180.632812 663.332031 1166.6875 679.78125 1164.839844 L 679.78125 1104.742188 C 671.597656 1103.371094 665.011719 1097.363281 662.8125 1089.496094 L 657.257812 1089.496094 C 653.257812 1089.941406 649.359375 1091.539062 646.25 1094.03125 C 643.089844 1096.582031 640.652344 1100.105469 639.394531 1103.960938 C 638.304688 1107.125 638.328125 1110.59375 638.363281 1114.265625 C 638.363281 1115.21875 638.375 1116.167969 638.363281 1117.109375 L 638.363281 1289.742188 C 646.875 1291.476562 653.515625 1298.300781 655.035156 1306.902344 L 717.230469 1306.902344 C 719.078125 1290.457031 733.019531 1277.671875 749.96875 1277.671875 C 768.160156 1277.671875 782.917969 1292.417969 782.917969 1310.621094 C 782.917969 1328.824219 768.171875 1343.570312 749.96875 1343.570312 C 733.03125 1343.570312 719.078125 1330.785156 717.230469 1314.339844 L 655.035156 1314.339844 C 653.515625 1322.929688 646.875 1329.753906 638.363281 1331.488281 L 638.363281 1474.957031 C 646.875 1476.691406 653.515625 1483.515625 655.035156 1492.105469 L 833.121094 1492.105469 C 834.96875 1475.660156 848.910156 1462.871094 865.855469 1462.871094 C 884.046875 1462.871094 898.808594 1477.621094 898.808594 1495.824219 C 898.808594 1514.027344 884.058594 1528.773438 865.855469 1528.773438 C 848.921875 1528.773438 834.96875 1515.988281 833.121094 1499.542969 L 655.023438 1499.542969 C 653.507812 1508.144531 646.863281 1514.957031 638.351562 1516.691406 L 638.351562 1534.351562 C 638.339844 1535.425781 638.351562 1536.4375 638.351562 1537.457031 C 638.386719 1541.445312 638.429688 1545.574219 637.105469 1549.753906 C 636.210938 1552.519531 635.042969 1555.015625 633.601562 1557.179688 C 631.957031 1559.570312 630.121094 1561.621094 628.128906 1563.3125 C 625.871094 1565.136719 623.535156 1566.578125 621.109375 1567.628906 C 618.3125 1568.773438 615.648438 1569.476562 613.109375 1569.761719 C 610.941406 1569.976562 608.878906 1569.988281 606.886719 1569.964844 L 598.304688 1569.964844 C 596.582031 1569.941406 594.902344 1569.964844 593.214844 1569.964844 C 592.25 1569.964844 591.277344 1569.964844 590.289062 1569.964844 C 588.125 1569.964844 585.9375 1569.941406 583.738281 1569.839844 C 578.082031 1569.332031 572.710938 1567.175781 568.425781 1563.777344 C 564.128906 1560.363281 560.796875 1555.625 559.074219 1550.425781 C 557.554688 1546.160156 557.578125 1541.84375 557.613281 1537.660156 C 557.613281 1536.789062 557.625 1535.914062 557.613281 1535.042969 L 557.613281 1516.78125 C 548.839844 1515.238281 541.9375 1508.335938 540.371094 1499.5625 L 479.785156 1499.5625 C 475.355469 1499.664062 470.910156 1501.285156 467.363281 1504.132812 C 463.746094 1507.035156 461.164062 1510.988281 460.097656 1515.285156 C 459.554688 1517.269531 459.324219 1519.445312 459.382812 1522.234375 L 459.382812 1682.035156 C 459.460938 1685.320312 459.191406 1688.234375 458.53125 1690.851562 C 457.21875 1696.578125 453.816406 1702.007812 448.953125 1706.085938 C 443.945312 1710.101562 437.9375 1712.367188 431.984375 1712.515625 C 429.605469 1712.558594 427.238281 1712.570312 424.867188 1712.570312 C 422.632812 1712.570312 420.414062 1712.570312 418.179688 1712.570312 C 417.433594 1712.570312 416.695312 1712.570312 415.945312 1712.570312 L 350.519531 1712.570312 C 348.96875 1721.355469 342.066406 1728.269531 333.28125 1729.8125 L 333.28125 1830.125 C 343.109375 1831.859375 350.589844 1840.304688 350.839844 1850.5625 L 514.402344 1850.5625 C 516.25 1834.117188 530.191406 1821.332031 547.136719 1821.332031 C 565.332031 1821.332031 580.089844 1836.078125 580.089844 1854.28125 C 580.089844 1872.484375 565.34375 1887.230469 547.136719 1887.230469 C 530.191406 1887.230469 516.25 1874.445312 514.402344 1858 L 349.695312 1858 C 347.210938 1865.230469 340.953125 1870.695312 333.28125 1872.042969 L 333.28125 1874.140625 C 333.28125 1875.398438 333.28125 1876.632812 333.28125 1877.878906 C 333.28125 1880.183594 333.28125 1882.484375 333.246094 1884.785156 C 333.132812 1888.839844 332.136719 1892.898438 330.367188 1896.515625 C 326.84375 1903.847656 320.042969 1909.472656 312.175781 1911.523438 C 309.023438 1912.429688 305.839844 1912.53125 302.746094 1912.53125 C 302.289062 1912.53125 301.847656 1912.53125 301.40625 1912.53125 L 290.183594 1912.53125 C 290.183594 1912.53125 74.855469 1912.53125 74.855469 1912.53125 C 73.007812 1928.980469 59.066406 1941.765625 42.117188 1941.765625 C 23.925781 1941.765625 9.167969 1927.019531 9.167969 1908.8125 C 9.167969 1890.609375 23.914062 1875.863281 42.117188 1875.863281 C 59.066406 1875.863281 73.007812 1888.648438 74.855469 1905.097656 L 301.441406 1905.097656 C 304.570312 1905.117188 307.539062 1905.128906 310.214844 1904.359375 C 316.085938 1902.828125 321.085938 1898.691406 323.691406 1893.273438 C 325.019531 1890.574219 325.742188 1887.582031 325.832031 1884.601562 C 325.878906 1882.382812 325.867188 1880.136719 325.867188 1877.890625 C 325.867188 1876.632812 325.867188 1875.375 325.867188 1874.117188 L 325.867188 1872.03125 C 318.183594 1870.671875 311.9375 1865.21875 309.453125 1857.988281 L 0.667969 1857.988281 L 0.667969 1850.550781 L 308.308594 1850.550781 C 308.558594 1840.292969 316.050781 1831.847656 325.867188 1830.113281 L 325.867188 1729.800781 C 317.082031 1728.246094 310.167969 1721.34375 308.628906 1712.558594 L 0.667969 1712.558594 L 0.667969 1705.125 L 308.628906 1705.125 C 310.179688 1696.339844 317.082031 1689.4375 325.867188 1687.882812 L 325.867188 1525.386719 C 325.867188 1524.761719 325.867188 1524.105469 325.867188 1523.433594 C 325.867188 1520.714844 325.890625 1518.140625 325.289062 1515.796875 C 323.882812 1509.855469 319.90625 1504.722656 314.613281 1501.976562 C 311.960938 1500.585938 308.988281 1499.769531 306.007812 1499.609375 C 303.84375 1499.519531 301.609375 1499.53125 299.390625 1499.542969 C 298.128906 1499.542969 296.871094 1499.550781 295.613281 1499.542969 L 211.101562 1499.542969 C 206.089844 1499.53125 201.09375 1499.542969 196.082031 1499.542969 C 186.980469 1499.542969 177.890625 1499.5625 168.785156 1499.460938 C 160.46875 1499.03125 152.667969 1494.894531 147.75 1488.410156 C 145.300781 1485.238281 143.5 1481.472656 142.582031 1477.5625 C 141.765625 1474.390625 141.789062 1471.238281 141.796875 1468.199219 C 141.796875 1467.542969 141.796875 1466.898438 141.796875 1466.238281 L 141.796875 1331.816406 C 132.210938 1330.910156 124.5 1323.667969 122.859375 1314.328125 L 0.667969 1314.328125 L 0.667969 1306.890625 L 122.867188 1306.890625 C 124.511719 1297.550781 132.21875 1290.308594 141.796875 1289.402344 L 141.796875 1201.996094 C 141.730469 1199.074219 141.027344 1196.082031 139.734375 1193.394531 C 137.140625 1187.90625 132.175781 1183.726562 126.441406 1182.183594 C 123.550781 1181.332031 120.441406 1181.355469 117.15625 1181.378906 L 0.667969 1181.378906 C 0.667969 1181.378906 0.667969 1173.953125 0.667969 1173.953125 L 116.917969 1173.953125 C 120.773438 1173.921875 124.59375 1173.898438 128.457031 1175.042969 C 136.1875 1177.117188 142.941406 1182.796875 146.445312 1190.210938 C 148.179688 1193.824219 149.144531 1197.882812 149.222656 1201.917969 L 149.246094 1212.550781 L 149.246094 1290.023438 C 157.203125 1292.121094 163.335938 1298.683594 164.785156 1306.890625 L 540.417969 1306.890625 C 541.96875 1298.105469 548.871094 1291.191406 557.65625 1289.652344 L 557.65625 1247.210938 C 557.644531 1246.386719 557.65625 1245.511719 557.65625 1244.628906 C 557.667969 1243.109375 557.679688 1241.679688 557.578125 1240.277344 C 557.429688 1238.109375 557.011719 1236.128906 556.320312 1234.371094 C 555.570312 1232.339844 554.597656 1230.5625 553.394531 1229.019531 C 552.089844 1227.285156 550.652344 1225.859375 549.066406 1224.722656 C 547.296875 1223.421875 545.515625 1222.46875 543.703125 1221.855469 C 541.6875 1221.121094 539.703125 1220.722656 537.730469 1220.644531 C 534.714844 1220.5625 531.65625 1220.5625 528.582031 1220.574219 C 526.871094 1220.574219 525.171875 1220.585938 523.460938 1220.574219 L 242.882812 1220.574219 C 241.988281 1220.585938 241.015625 1220.542969 240.039062 1220.484375 L 237.816406 1220.257812 C 236.863281 1220.121094 235.789062 1219.964844 234.667969 1219.613281 C 224.066406 1217.050781 215.386719 1207.539062 213.753906 1196.546875 C 213.367188 1194.414062 213.367188 1192.261719 213.367188 1190.175781 L 213.367188 1167.234375 C 213.367188 1167.234375 213.34375 1052.113281 213.34375 1052.113281 C 213.324219 1050.257812 213.003906 1048.261719 212.371094 1046.0625 C 211.769531 1044.25 210.863281 1042.367188 209.707031 1040.609375 C 208.59375 1039.023438 207.191406 1037.480469 205.582031 1036.121094 C 204.085938 1034.917969 202.304688 1033.855469 200.34375 1032.992188 C 198.5625 1032.277344 196.546875 1031.757812 194.4375 1031.507812 C 192.839844 1031.382812 191.058594 1031.382812 189.179688 1031.394531 L 0.667969 1031.394531 L 0.667969 1023.957031 L 189.191406 1023.957031 C 191.140625 1023.949219 193.15625 1023.957031 195.210938 1024.105469 C 198.121094 1024.457031 200.773438 1025.136719 203.257812 1026.144531 C 205.910156 1027.3125 208.265625 1028.71875 210.339844 1030.398438 C 212.507812 1032.234375 214.355469 1034.25 215.894531 1036.460938 C 217.472656 1038.863281 218.660156 1041.324219 219.5 1043.886719 C 220.363281 1046.867188 220.78125 1049.507812 220.804688 1052.082031 L 220.824219 1190.1875 C 220.824219 1192.011719 220.824219 1193.746094 221.109375 1195.320312 C 222.324219 1203.515625 228.714844 1210.511719 236.660156 1212.4375 C 237.453125 1212.675781 238.167969 1212.777344 238.917969 1212.890625 L 240.503906 1213.0625 C 241.273438 1213.105469 242.054688 1213.164062 242.828125 1213.140625 L 523.492188 1213.140625 C 525.203125 1213.152344 526.882812 1213.140625 528.570312 1213.140625 C 531.710938 1213.128906 534.851562 1213.117188 537.980469 1213.207031 C 540.757812 1213.308594 543.5 1213.867188 546.175781 1214.828125 C 548.632812 1215.65625 551.09375 1216.972656 553.429688 1218.695312 C 555.582031 1220.222656 557.566406 1222.183594 559.289062 1224.488281 C 560.921875 1226.582031 562.269531 1229.03125 563.257812 1231.707031 C 564.199219 1234.109375 564.785156 1236.832031 564.980469 1239.742188 C 565.09375 1241.421875 565.082031 1243.0625 565.070312 1244.664062 C 565.070312 1245.488281 565.058594 1246.304688 565.070312 1247.132812 L 565.070312 1289.628906 C 573.855469 1291.179688 580.769531 1298.085938 582.3125 1306.867188 L 613.109375 1306.867188 C 614.683594 1297.902344 621.871094 1290.886719 630.914062 1289.539062 L 630.914062 1117.03125 C 630.925781 1116.089844 630.914062 1115.183594 630.914062 1114.277344 C 630.882812 1110.140625 630.859375 1105.867188 632.332031 1101.558594 C 634.007812 1096.410156 637.296875 1091.652344 641.570312 1088.207031 C 645.820312 1084.78125 651.195312 1082.59375 656.667969 1082.050781 L 657.03125 1082.027344 L 662.0625 1082.027344 C 662.835938 1072.234375 670.214844 1064.324219 679.757812 1062.722656 L 679.757812 947.253906 C 671.175781 945.828125 664.332031 939.273438 662.484375 930.832031 L 511.363281 930.832031 C 511.171875 930.832031 510.96875 930.832031 510.777344 930.832031 C 506.957031 930.832031 503.054688 929.777344 499.835938 927.828125 C 496.390625 925.796875 493.476562 922.667969 491.675781 919.042969 C 490.03125 915.925781 489.296875 912.128906 489.441406 907.503906 L 489.441406 807.109375 C 489.738281 801 487.730469 795.261719 483.933594 791.183594 C 480.082031 786.921875 474.445312 784.359375 468.800781 784.292969 L 297.960938 784.269531 C 296.984375 784.28125 295.953125 784.269531 294.910156 784.269531 C 292.621094 784.246094 290.46875 784.234375 288.382812 784.496094 C 282.828125 785.222656 277.511719 788.417969 274.203125 793.054688 C 272.523438 795.367188 271.324219 798.039062 270.722656 800.796875 C 270.191406 803.039062 270.203125 805.429688 270.210938 807.957031 C 270.210938 808.660156 270.210938 809.351562 270.210938 810.042969 C 270.191406 811.121094 270.210938 812.175781 270.210938 813.230469 C 270.234375 815.554688 270.246094 817.96875 270.007812 820.417969 C 269.554688 824.292969 268.296875 828.054688 266.371094 831.386719 C 263.285156 836.863281 258.210938 841.226562 252.121094 843.652344 C 247.371094 845.726562 242.441406 845.683594 237.671875 845.636719 C 236.558594 845.636719 235.460938 845.613281 234.359375 845.636719 L 0.667969 845.636719 L 0.667969 838.199219 L 234.304688 838.199219 C 235.390625 838.179688 236.570312 838.1875 237.75 838.199219 C 241.933594 838.246094 245.875 838.269531 249.289062 836.785156 C 253.855469 834.96875 257.699219 831.671875 259.941406 827.691406 C 261.394531 825.199219 262.324219 822.421875 262.640625 819.621094 C 262.832031 817.628906 262.824219 815.519531 262.800781 813.285156 C 262.800781 812.175781 262.789062 811.054688 262.800781 809.941406 C 262.800781 809.308594 262.800781 808.648438 262.800781 807.992188 C 262.789062 805.136719 262.777344 802.1875 263.503906 799.140625 C 264.320312 795.457031 265.9375 791.839844 268.195312 788.722656 C 272.671875 782.464844 279.882812 778.136719 287.476562 777.140625 C 290.070312 776.820312 292.578125 776.84375 295.003906 776.855469 C 295.976562 776.855469 296.964844 776.867188 297.9375 776.855469 L 468.894531 776.878906 C 476.613281 776.980469 484.273438 780.449219 489.441406 786.171875 C 494.566406 791.671875 497.296875 799.402344 496.902344 807.3125 L 496.902344 907.648438 C 496.789062 911.0625 497.253906 913.65625 498.328125 915.6875 C 499.53125 918.125 501.414062 920.140625 503.667969 921.46875 C 505.890625 922.816406 508.609375 923.453125 511.285156 923.417969 L 662.222656 923.417969 C 663.46875 914.167969 670.632812 906.824219 679.78125 905.292969 L 679.78125 864.804688 C 679.691406 860.191406 680.4375 855.941406 682.011719 852.222656 C 683.726562 848.242188 686.355469 844.628906 689.640625 841.761719 C 692.816406 838.949219 696.792969 836.851562 701.125 835.71875 C 704.605469 834.742188 708.074219 834.753906 711.40625 834.777344 L 885.488281 834.777344 C 888.640625 834.800781 891.621094 834.800781 894.316406 834.007812 C 900.5625 832.363281 905.890625 827.601562 908.304688 821.574219 C 909.4375 818.828125 909.9375 815.667969 909.847656 811.890625 L 909.847656 747.441406 L 0.667969 747.441406 L 0.667969 738.375 L 909.871094 738.375 L 909.871094 682.207031 C 901.085938 680.65625 894.171875 673.753906 892.628906 664.96875 L 581.710938 664.96875 C 580.566406 664.945312 579.488281 664.96875 578.410156 664.96875 C 577.742188 664.96875 577.074219 664.980469 576.394531 664.980469 C 573.289062 664.980469 570.101562 664.832031 566.859375 663.867188 C 556.558594 661.082031 548.375 652.070312 546.570312 641.460938 C 546.117188 639.226562 546.117188 636.96875 546.105469 634.792969 L 546.105469 613.121094 C 546.105469 613.121094 546.105469 457.277344 546.105469 457.277344 C 537.1875 455.835938 530.125 448.867188 528.558594 439.992188 L 470.480469 439.992188 L 470.480469 432.554688 L 528.558594 432.554688 C 530.125 423.667969 537.1875 416.707031 546.105469 415.269531 L 546.105469 403.105469 C 546.117188 399.367188 546.140625 395.828125 544.90625 392.769531 C 542.285156 385.207031 535.089844 379.53125 527.347656 378.769531 C 525.636719 378.625 523.832031 378.632812 521.941406 378.632812 L 444.488281 378.632812 C 444.488281 378.632812 0.65625 378.632812 0.65625 378.632812 L 0.65625 371.199219 L 521.917969 371.199219 C 523.890625 371.199219 525.929688 371.1875 528.015625 371.367188 C 538.761719 372.410156 548.328125 379.972656 551.851562 390.164062 C 553.566406 394.402344 553.554688 399.050781 553.53125 403.140625 L 553.53125 415.359375 C 562.167969 417.015625 568.933594 423.871094 570.464844 432.554688 L 885.839844 432.554688 C 888.027344 432.53125 889.921875 432.554688 891.859375 432.726562 C 896.257812 433.222656 900.472656 434.730469 904.144531 437.066406 C 911.535156 441.746094 916.535156 450.054688 917.179688 458.738281 L 917.179688 458.988281 C 917.328125 478.609375 917.304688 498.558594 917.292969 517.851562 C 917.292969 528.585938 917.28125 539.320312 917.292969 550.042969 L 917.292969 640.269531 C 926.078125 641.820312 932.992188 648.734375 934.535156 657.507812 L 998.929688 657.507812 C 1000.820312 657.507812 1002.613281 657.519531 1004.347656 657.351562 C 1006.125 657.148438 1008.066406 656.636719 1010.035156 655.855469 C 1017.234375 652.90625 1022.527344 645.414062 1022.855469 637.652344 C 1022.949219 631.8125 1022.9375 625.863281 1022.925781 619.921875 C 1022.925781 616.636719 1022.925781 613.347656 1022.925781 610.0625 L 1022.925781 499.113281 C 1022.867188 496.496094 1023.074219 493.898438 1023.558594 491.484375 C 1024.136719 488.902344 1025.042969 486.40625 1026.28125 484.015625 C 1028.910156 479.199219 1032.707031 475.3125 1037.296875 472.691406 C 1041.886719 470.0625 1047.191406 468.78125 1052.542969 468.917969 L 1237.335938 468.917969 C 1239.183594 452.46875 1253.128906 439.683594 1270.074219 439.683594 C 1288.265625 439.683594 1303.023438 454.429688 1303.023438 472.636719 C 1303.023438 490.839844 1288.277344 505.585938 1270.074219 505.585938 C 1253.140625 505.585938 1239.183594 492.800781 1237.335938 476.351562 L 1052.429688 476.351562 C 1048.371094 476.230469 1044.347656 477.214844 1040.980469 479.152344 C 1037.582031 481.089844 1034.769531 483.96875 1032.84375 487.507812 C 1031.9375 489.265625 1031.246094 491.132812 1030.824219 493.015625 C 1030.460938 494.816406 1030.304688 496.871094 1030.347656 499.023438 L 1030.347656 610.0625 C 1030.347656 613.347656 1030.347656 616.625 1030.347656 619.898438 C 1030.347656 625.886719 1030.371094 631.871094 1030.28125 637.855469 C 1029.816406 648.691406 1022.800781 658.65625 1012.804688 662.734375 C 1010.183594 663.765625 1007.613281 664.433594 1005.128906 664.71875 C 1002.964844 664.933594 1000.902344 664.921875 998.894531 664.921875 L 956.160156 664.921875 C 956.160156 664.921875 934.523438 664.921875 934.523438 664.921875 C 932.96875 673.707031 926.066406 680.621094 917.28125 682.164062 L 917.28125 738.328125 L 1216.3125 738.328125 C 1218.070312 730.199219 1224.460938 723.820312 1232.589844 722.050781 L 1232.589844 671.519531 C 1232.589844 670.90625 1232.589844 670.339844 1232.589844 669.773438 C 1232.589844 667.234375 1232.566406 664.605469 1233.066406 661.851562 C 1233.609375 658.382812 1234.675781 655.082031 1236.203125 652.136719 C 1239.105469 646.195312 1244.070312 641.003906 1250.125 637.617188 C 1253.160156 635.984375 1256.359375 634.804688 1259.691406 634.082031 C 1262.921875 633.457031 1265.957031 633.355469 1269.550781 633.390625 L 1463.492188 633.390625 C 1465.410156 624.546875 1472.8125 617.757812 1481.96875 616.75 L 1481.96875 364.535156 C 1481.96875 364.535156 1482.128906 361.675781 1482.128906 361.675781 C 1482.523438 357.585938 1483.636719 353.652344 1485.425781 349.980469 C 1488.964844 342.679688 1495.289062 336.683594 1502.78125 333.53125 C 1506.523438 331.957031 1510.523438 331.09375 1514.683594 330.949219 C 1517.050781 330.878906 1519.410156 330.878906 1521.6875 330.890625 C 1522.921875 330.890625 1524.160156 330.890625 1525.40625 330.890625 L 2238.21875 330.890625 C 2240.144531 324.78125 2245.847656 320.351562 2252.589844 320.351562 C 2260.921875 320.351562 2267.667969 327.09375 2267.667969 335.425781 Z M 581.789062 657.542969 L 892.640625 657.542969 C 894.183594 648.757812 901.097656 641.84375 909.878906 640.304688 L 909.878906 550.085938 C 909.871094 539.351562 909.878906 528.621094 909.878906 517.886719 C 909.890625 498.648438 909.914062 478.769531 909.777344 459.203125 C 909.269531 452.867188 905.597656 446.816406 900.179688 443.378906 C 897.433594 441.632812 894.304688 440.523438 891.121094 440.148438 C 889.578125 440.011719 887.902344 439.992188 885.894531 440.011719 L 570.488281 440.011719 C 568.957031 448.695312 562.191406 455.554688 553.554688 457.207031 L 553.554688 633.945312 C 553.554688 633.945312 553.554688 634.792969 553.554688 634.792969 C 553.554688 636.699219 553.554688 638.488281 553.894531 640.121094 C 555.21875 647.910156 561.386719 654.6875 568.914062 656.726562 C 571.859375 657.601562 575.011719 657.578125 578.355469 657.542969 C 579.511719 657.542969 580.65625 657.519531 581.800781 657.542969 Z M 630.9375 1474.75 L 630.9375 1331.625 C 621.890625 1330.277344 614.707031 1323.269531 613.128906 1314.292969 L 582.332031 1314.292969 C 580.78125 1323.078125 573.878906 1329.992188 565.09375 1331.535156 L 565.09375 1474.832031 C 573.878906 1476.382812 580.792969 1483.285156 582.332031 1492.070312 L 613.128906 1492.070312 C 614.707031 1483.105469 621.890625 1476.089844 630.9375 1474.742188 Z M 540.417969 1492.09375 C 541.957031 1483.308594 548.871094 1476.382812 557.65625 1474.84375 L 557.65625 1331.546875 C 548.871094 1329.992188 541.957031 1323.089844 540.417969 1314.304688 L 164.785156 1314.304688 C 163.335938 1322.511719 157.214844 1329.074219 149.246094 1331.171875 L 149.246094 1466.183594 C 149.246094 1466.828125 149.246094 1467.519531 149.246094 1468.210938 C 149.234375 1470.910156 149.222656 1473.460938 149.8125 1475.773438 C 150.503906 1478.730469 151.828125 1481.507812 153.667969 1483.875 C 157.292969 1488.671875 163.027344 1491.699219 169.023438 1492.015625 C 177.933594 1492.105469 187.003906 1492.09375 196.070312 1492.082031 C 201.082031 1492.082031 206.089844 1492.070312 211.113281 1492.082031 L 295.648438 1492.082031 C 296.90625 1492.09375 298.128906 1492.082031 299.355469 1492.082031 C 301.691406 1492.070312 304.035156 1492.0625 306.371094 1492.164062 C 310.453125 1492.390625 314.464844 1493.5 318.046875 1495.371094 C 325.222656 1499.089844 330.640625 1506.058594 332.511719 1514.003906 C 333.335938 1517.203125 333.316406 1520.386719 333.304688 1523.457031 L 333.304688 1687.871094 C 342.089844 1689.425781 349.003906 1696.328125 350.542969 1705.113281 L 415.957031 1705.113281 C 417.816406 1705.113281 419.699219 1705.113281 421.570312 1705.113281 C 425.003906 1705.113281 428.425781 1705.125 431.851562 1705.066406 C 436.167969 1704.964844 440.589844 1703.277344 444.273438 1700.328125 C 447.832031 1697.335938 450.371094 1693.335938 451.335938 1689.121094 C 451.84375 1687.078125 452.046875 1684.8125 451.980469 1682.113281 L 451.980469 1522.289062 C 451.914062 1518.832031 452.21875 1515.976562 452.933594 1513.394531 C 454.359375 1507.625 457.851562 1502.238281 462.738281 1498.328125 C 467.566406 1494.472656 473.597656 1492.277344 479.730469 1492.140625 L 540.394531 1492.117188 Z M 630.9375 1537.503906 C 630.9375 1536.425781 630.914062 1535.335938 630.9375 1534.261719 L 630.9375 1516.839844 C 621.890625 1515.5 614.71875 1508.496094 613.128906 1499.53125 L 582.320312 1499.53125 C 580.769531 1508.304688 573.855469 1515.207031 565.082031 1516.746094 L 565.082031 1534.972656 C 565.082031 1535.847656 565.082031 1536.765625 565.082031 1537.683594 C 565.058594 1541.378906 565.035156 1544.882812 566.136719 1547.976562 C 567.4375 1551.898438 569.898438 1555.410156 573.082031 1557.929688 C 576.246094 1560.445312 580.226562 1562.03125 584.28125 1562.40625 C 587.117188 1562.542969 590.210938 1562.519531 593.214844 1562.507812 C 594.9375 1562.507812 596.660156 1562.496094 598.382812 1562.507812 L 606.941406 1562.507812 C 608.835938 1562.507812 610.625 1562.519531 612.359375 1562.347656 C 614.171875 1562.144531 616.179688 1561.613281 618.253906 1560.761719 C 619.976562 1560.011719 621.746094 1558.914062 623.421875 1557.554688 C 624.863281 1556.339844 626.246094 1554.789062 627.46875 1552.996094 C 628.488281 1551.445312 629.375 1549.574219 630.054688 1547.464844 C 631.003906 1544.4375 630.984375 1541.0625 630.949219 1537.503906 Z M 1481.980469 711.804688 L 1481.980469 659.128906 C 1472.832031 658.132812 1465.433594 651.34375 1463.503906 642.492188 L 1269.527344 642.492188 C 1266.433594 642.46875 1263.917969 642.535156 1261.539062 643 C 1259.136719 643.523438 1256.730469 644.417969 1254.511719 645.609375 C 1250.125 648.066406 1246.472656 651.863281 1244.320312 656.261719 C 1243.199219 658.4375 1242.4375 660.808594 1242.03125 663.402344 C 1241.667969 665.433594 1241.679688 667.550781 1241.679688 669.785156 C 1241.679688 670.386719 1241.679688 671 1241.679688 671.597656 L 1241.679688 722.097656 C 1249.804688 723.851562 1256.1875 730.246094 1257.957031 738.375 L 1452.066406 738.375 C 1452.859375 738.375 1453.722656 738.375 1454.585938 738.375 C 1457.125 738.375 1459.515625 738.40625 1461.691406 737.941406 C 1467.621094 736.820312 1473.058594 733.476562 1476.722656 728.773438 C 1478.558594 726.414062 1479.953125 723.808594 1480.847656 720.972656 L 1481.449219 718.652344 C 1481.539062 718.207031 1481.59375 717.765625 1481.664062 717.324219 C 1481.707031 717.039062 1481.742188 716.746094 1481.800781 716.460938 C 1481.945312 715.035156 1482.015625 713.515625 1481.992188 711.816406 Z M 1681.058594 241.105469 L 1659.625 241.105469 L 1659.625 297.667969 L 1681.058594 297.667969 Z M 1720.765625 241.105469 L 1699.328125 241.105469 L 1699.328125 297.667969 L 1720.765625 297.667969 Z M 1760.472656 241.105469 L 1739.035156 241.105469 L 1739.035156 297.667969 L 1760.472656 297.667969 Z M 1800.1875 241.105469 L 1778.753906 241.105469 L 1778.753906 297.667969 L 1800.1875 297.667969 Z M 1839.894531 241.105469 L 1818.460938 241.105469 L 1818.460938 297.667969 L 1839.894531 297.667969 Z M 1879.613281 241.105469 L 1858.179688 241.105469 L 1858.179688 297.667969 L 1879.613281 297.667969 Z M 1919.320312 241.105469 L 1897.886719 241.105469 L 1897.886719 297.667969 L 1919.320312 297.667969 Z M 1959.027344 241.105469 L 1937.589844 241.105469 L 1937.589844 297.667969 L 1959.027344 297.667969 Z M 1959.027344 241.105469 " fill-opacity="1" fill-rule="nonzero"/></g></svg>