<svg xmlns="http://www.w3.org/2000/svg" xmlns:xlink="http://www.w3.org/1999/xlink" width="4032" zoomAndPan="magnify" viewBox="0 0 3024 2268.00001" height="3024" preserveAspectRatio="xMidYMid meet" version="1.0"><defs><clipPath id="299387e292"><path d="M 2160.960938 1261.800781 L 2914 1261.800781 L 2914 2183.894531 L 2160.960938 2183.894531 Z M 2160.960938 1261.800781 " clip-rule="nonzero"/></clipPath></defs><g clip-path="url(#299387e292)"><path fill="#4b4b4b" d="M 2853.425781 1564.75 C 2859.558594 1568.707031 2866.855469 1571.007812 2874.679688 1571.007812 C 2896.347656 1571.007812 2913.976562 1553.378906 2913.976562 1531.710938 C 2913.976562 1510.042969 2896.347656 1492.414062 2874.679688 1492.414062 C 2853.011719 1492.414062 2835.382812 1510.042969 2835.382812 1531.710938 C 2835.382812 1535.785156 2836.007812 1539.714844 2837.164062 1543.410156 L 2772.46875 1602.265625 C 2769.683594 1604.796875 2768.097656 1608.382812 2768.097656 1612.148438 L 2768.097656 1669.570312 L 2713.011719 1598.179688 L 2713.011719 1529.300781 L 2772.3125 1474.792969 C 2777.53125 1477.363281 2783.402344 1478.808594 2789.601562 1478.808594 C 2811.269531 1478.808594 2828.898438 1461.179688 2828.898438 1439.511719 C 2828.898438 1417.84375 2811.269531 1400.214844 2789.601562 1400.214844 C 2767.933594 1400.214844 2750.304688 1417.84375 2750.304688 1439.511719 C 2750.304688 1445.226562 2751.535156 1450.660156 2753.734375 1455.5625 L 2690.601562 1513.597656 C 2687.847656 1516.128906 2686.28125 1519.695312 2686.28125 1523.433594 L 2686.28125 1582.105469 C 2684.824219 1582.652344 2683.417969 1583.425781 2682.121094 1584.425781 L 2631.195312 1623.71875 L 2631.195312 1442.023438 L 2687.917969 1386.765625 C 2693.050781 1389.230469 2698.796875 1390.609375 2704.855469 1390.609375 C 2726.523438 1390.609375 2744.152344 1372.980469 2744.152344 1351.3125 C 2744.152344 1329.644531 2726.523438 1312.015625 2704.855469 1312.015625 C 2683.1875 1312.015625 2665.558594 1329.644531 2665.558594 1351.3125 C 2665.558594 1357.167969 2666.847656 1362.730469 2669.160156 1367.730469 L 2608.507812 1426.8125 C 2605.925781 1429.328125 2604.46875 1432.777344 2604.46875 1436.386719 L 2604.46875 1645.546875 C 2603.214844 1647.515625 2602.394531 1649.753906 2602.089844 1652.113281 C 2601.609375 1655.847656 2602.460938 1659.621094 2604.46875 1662.777344 L 2604.46875 1680.710938 C 2589.984375 1682.632812 2575.804688 1688.265625 2563.429688 1697.816406 L 2549.382812 1708.65625 L 2549.382812 1338.039062 C 2564.492188 1332.558594 2575.316406 1318.058594 2575.316406 1301.082031 C 2575.316406 1279.414062 2557.6875 1261.785156 2536.019531 1261.785156 C 2514.351562 1261.785156 2496.722656 1279.414062 2496.722656 1301.082031 C 2496.722656 1318.058594 2507.550781 1332.558594 2522.65625 1338.039062 L 2522.65625 1729.273438 L 2517.6875 1733.109375 L 2517.394531 1733.335938 C 2517.007812 1732.636719 2516.5625 1731.957031 2516.054688 1731.300781 L 2511.878906 1725.894531 C 2506.039062 1718.320312 2498.621094 1712.402344 2490.203125 1708.464844 L 2495.515625 1704.367188 C 2502.53125 1698.953125 2503.832031 1688.871094 2498.417969 1681.851562 L 2467.574219 1641.878906 L 2467.574219 1436.386719 C 2467.574219 1432.78125 2466.117188 1429.328125 2463.535156 1426.8125 L 2402.882812 1367.730469 C 2405.191406 1362.730469 2406.484375 1357.167969 2406.484375 1351.3125 C 2406.484375 1329.644531 2388.855469 1312.015625 2367.1875 1312.015625 C 2345.519531 1312.015625 2327.890625 1329.644531 2327.890625 1351.3125 C 2327.890625 1372.980469 2345.519531 1390.609375 2367.1875 1390.609375 C 2373.25 1390.609375 2378.992188 1389.230469 2384.121094 1386.769531 L 2440.84375 1442.023438 L 2440.84375 1607.277344 C 2438.265625 1604.28125 2434.667969 1602.328125 2430.730469 1601.820312 C 2426.507812 1601.277344 2422.242188 1602.433594 2418.871094 1605.03125 L 2385.761719 1630.578125 L 2385.761719 1523.433594 C 2385.761719 1519.691406 2384.195312 1516.128906 2381.441406 1513.597656 L 2318.308594 1455.5625 C 2320.511719 1450.660156 2321.738281 1445.230469 2321.738281 1439.511719 C 2321.738281 1417.84375 2304.109375 1400.214844 2282.441406 1400.214844 C 2260.773438 1400.214844 2243.144531 1417.84375 2243.144531 1439.511719 C 2243.144531 1461.179688 2260.773438 1478.808594 2282.441406 1478.808594 C 2288.644531 1478.808594 2294.515625 1477.363281 2299.734375 1474.792969 L 2359.03125 1529.300781 L 2359.03125 1651.203125 L 2303.949219 1693.707031 L 2303.949219 1612.148438 C 2303.949219 1608.382812 2302.359375 1604.796875 2299.578125 1602.265625 L 2234.882812 1543.410156 C 2236.039062 1539.714844 2236.660156 1535.78125 2236.660156 1531.710938 C 2236.660156 1510.042969 2219.03125 1492.414062 2197.363281 1492.414062 C 2175.695312 1492.414062 2158.070312 1510.042969 2158.070312 1531.710938 C 2158.070312 1553.378906 2175.695312 1571.007812 2197.363281 1571.007812 C 2205.191406 1571.007812 2212.488281 1568.707031 2218.617188 1564.75 L 2277.21875 1618.0625 L 2277.21875 1714.332031 L 2187.253906 1783.746094 C 2183.882812 1786.347656 2181.683594 1790.179688 2181.140625 1794.40625 C 2180.59375 1798.625 2181.75 1802.890625 2184.351562 1806.261719 L 2241.382812 1880.179688 C 2244.613281 1884.363281 2249.503906 1886.515625 2254.414062 1886.421875 C 2257.734375 1886.355469 2261.066406 1885.265625 2263.898438 1883.082031 L 2274.878906 1874.613281 C 2276.554688 1883.757812 2280.394531 1892.433594 2286.238281 1900.003906 L 2291.152344 1906.371094 C 2291.410156 1906.707031 2291.683594 1907.023438 2291.960938 1907.332031 C 2273.046875 1923.132812 2269.835938 1951.289062 2285.019531 1970.96875 L 2286.617188 1973.035156 C 2291.757812 1979.695312 2298.457031 1984.71875 2306.074219 1987.738281 C 2305.546875 1989.722656 2305.144531 1991.746094 2304.878906 1993.8125 C 2303.300781 2006.046875 2306.582031 2018.164062 2314.121094 2027.929688 L 2315.71875 2030.003906 C 2321.992188 2038.136719 2330.59375 2043.824219 2340.363281 2046.414062 C 2338.96875 2058.4375 2342.265625 2070.3125 2349.671875 2079.914062 L 2351.269531 2081.984375 C 2360.550781 2094.019531 2374.636719 2100.199219 2388.777344 2099.929688 C 2389.550781 2099.917969 2390.324219 2099.875 2391.097656 2099.820312 C 2392.371094 2107.101562 2395.394531 2114.011719 2400.035156 2120.03125 L 2401.632812 2122.101562 C 2410.917969 2134.132812 2425.003906 2140.316406 2439.144531 2140.046875 C 2448.128906 2139.871094 2457.132812 2137.089844 2464.933594 2131.546875 L 2495.109375 2170.597656 C 2503.601562 2181.609375 2516.730469 2187.171875 2530.296875 2186.90625 C 2540.441406 2186.710938 2550.832031 2183.261719 2559.71875 2176.402344 C 2566.886719 2170.875 2572.152344 2163.84375 2575.371094 2156.210938 C 2577.875 2156.824219 2580.46875 2157.230469 2583.132812 2157.414062 C 2584.515625 2157.511719 2585.90625 2157.542969 2587.289062 2157.515625 C 2597.761719 2157.316406 2608.078125 2153.644531 2616.71875 2146.976562 C 2623.71875 2141.574219 2629.089844 2134.617188 2632.398438 2126.8125 C 2635.128906 2127.535156 2637.96875 2128.003906 2640.894531 2128.207031 C 2642.277344 2128.300781 2643.667969 2128.335938 2645.050781 2128.308594 C 2655.523438 2128.105469 2665.835938 2124.4375 2674.480469 2117.769531 C 2691.648438 2104.523438 2697.929688 2082.644531 2691.230469 2064.589844 C 2696.691406 2062.851562 2701.984375 2060.132812 2706.832031 2056.390625 C 2727.617188 2040.359375 2732.449219 2011.660156 2717.601562 1992.417969 L 2690.609375 1957.460938 L 2747.949219 1913.21875 C 2759.183594 1904.546875 2767.40625 1893.007812 2771.886719 1879.878906 L 2784.011719 1895.59375 C 2787.242188 1899.78125 2792.128906 1901.933594 2797.039062 1901.839844 C 2800.363281 1901.773438 2803.691406 1900.683594 2806.523438 1898.5 L 2880.441406 1841.46875 C 2883.8125 1838.867188 2886.011719 1835.035156 2886.554688 1830.8125 C 2887.101562 1826.589844 2885.945312 1822.324219 2883.34375 1818.953125 L 2794.816406 1704.222656 L 2794.816406 1618.066406 Z M 2874.679688 1519.140625 C 2881.609375 1519.140625 2887.25 1524.777344 2887.25 1531.710938 C 2887.25 1538.640625 2881.613281 1544.28125 2874.679688 1544.28125 C 2867.746094 1544.28125 2862.109375 1538.644531 2862.109375 1531.710938 C 2862.113281 1524.777344 2867.75 1519.140625 2874.679688 1519.140625 Z M 2789.601562 1426.941406 C 2796.535156 1426.941406 2802.175781 1432.578125 2802.175781 1439.511719 C 2802.175781 1446.441406 2796.535156 1452.082031 2789.601562 1452.082031 C 2782.667969 1452.082031 2777.03125 1446.445312 2777.03125 1439.511719 C 2777.03125 1432.582031 2782.671875 1426.941406 2789.601562 1426.941406 Z M 2704.859375 1338.746094 C 2711.789062 1338.746094 2717.429688 1344.382812 2717.429688 1351.316406 C 2717.429688 1358.25 2711.792969 1363.886719 2704.859375 1363.886719 C 2697.925781 1363.886719 2692.289062 1358.25 2692.289062 1351.316406 C 2692.289062 1344.382812 2697.925781 1338.746094 2704.859375 1338.746094 Z M 2354.617188 1351.3125 C 2354.617188 1344.382812 2360.253906 1338.742188 2367.1875 1338.742188 C 2374.117188 1338.742188 2379.757812 1344.378906 2379.757812 1351.3125 C 2379.757812 1358.246094 2374.121094 1363.882812 2367.1875 1363.882812 C 2360.253906 1363.882812 2354.617188 1358.242188 2354.617188 1351.3125 Z M 2282.4375 1452.078125 C 2275.507812 1452.078125 2269.867188 1446.441406 2269.867188 1439.507812 C 2269.867188 1432.578125 2275.503906 1426.9375 2282.4375 1426.9375 C 2289.367188 1426.9375 2295.007812 1432.574219 2295.007812 1439.507812 C 2295.007812 1446.441406 2289.367188 1452.078125 2282.4375 1452.078125 Z M 2197.363281 1544.277344 C 2190.429688 1544.277344 2184.789062 1538.640625 2184.789062 1531.707031 C 2184.789062 1524.777344 2190.429688 1519.136719 2197.363281 1519.136719 C 2204.292969 1519.136719 2209.933594 1524.773438 2209.933594 1531.707031 C 2209.929688 1538.640625 2204.292969 1544.277344 2197.363281 1544.277344 Z M 2536.019531 1288.511719 C 2542.949219 1288.511719 2548.589844 1294.148438 2548.589844 1301.082031 C 2548.589844 1308.015625 2542.953125 1313.652344 2536.019531 1313.652344 C 2529.085938 1313.652344 2523.449219 1308.015625 2523.449219 1301.082031 C 2523.449219 1294.148438 2529.089844 1288.511719 2536.019531 1288.511719 Z M 2256.988281 1847.855469 L 2219.566406 1799.355469 L 2425.769531 1640.253906 L 2463.191406 1688.753906 Z M 2321.375 1958.785156 C 2317.644531 1958.304688 2314.324219 1956.398438 2312.027344 1953.421875 L 2310.429688 1951.355469 C 2305.6875 1945.207031 2306.828125 1936.347656 2312.972656 1931.605469 L 2367.453125 1889.570312 C 2369.933594 1887.65625 2372.851562 1886.703125 2375.765625 1886.644531 C 2380.078125 1886.5625 2384.371094 1888.449219 2387.203125 1892.113281 L 2388.800781 1894.1875 C 2391.097656 1897.164062 2392.097656 1900.859375 2391.613281 1904.585938 C 2391.136719 1908.316406 2389.226562 1911.636719 2386.253906 1913.933594 L 2376.949219 1921.109375 C 2376.945312 1921.113281 2376.941406 1921.113281 2376.9375 1921.117188 L 2331.769531 1955.96875 C 2328.800781 1958.265625 2325.105469 1959.265625 2321.375 1958.785156 Z M 2350.472656 2015.75 C 2346.742188 2015.269531 2343.421875 2013.363281 2341.125 2010.386719 L 2339.527344 2008.316406 C 2337.230469 2005.339844 2336.230469 2001.648438 2336.714844 1997.917969 C 2337.191406 1994.1875 2339.101562 1990.867188 2342.074219 1988.570312 L 2374.96875 1963.191406 L 2396.554688 1946.53125 C 2399.035156 1944.621094 2401.953125 1943.667969 2404.863281 1943.613281 C 2409.175781 1943.527344 2413.472656 1945.414062 2416.300781 1949.082031 L 2417.898438 1951.152344 C 2420.195312 1954.128906 2421.195312 1957.824219 2420.714844 1961.550781 C 2420.234375 1965.28125 2418.328125 1968.601562 2415.351562 1970.898438 L 2385.136719 1994.210938 L 2360.867188 2012.9375 C 2357.894531 2015.230469 2354.199219 2016.230469 2350.472656 2015.75 Z M 2404.066406 2059.023438 L 2396.425781 2064.917969 C 2390.28125 2069.660156 2381.421875 2068.519531 2376.679688 2062.375 L 2375.082031 2060.304688 C 2372.78125 2057.328125 2371.78125 2053.636719 2372.265625 2049.902344 C 2372.746094 2046.171875 2374.652344 2042.855469 2377.628906 2040.554688 L 2432.109375 1998.519531 C 2438.253906 1993.777344 2447.113281 1994.917969 2451.855469 2001.066406 L 2453.453125 2003.136719 C 2457.542969 2008.4375 2457.253906 2015.757812 2453.148438 2020.710938 L 2408.382812 2055.253906 C 2406.855469 2056.429688 2405.417969 2057.691406 2404.066406 2059.023438 Z M 2458.03125 2096.359375 C 2458.03125 2096.359375 2458.027344 2096.359375 2458.03125 2096.359375 C 2458.027344 2096.363281 2458.027344 2096.363281 2458.027344 2096.363281 L 2446.792969 2105.03125 C 2440.648438 2109.773438 2431.789062 2108.632812 2427.046875 2102.484375 L 2425.449219 2100.414062 C 2423.152344 2097.4375 2422.148438 2093.742188 2422.632812 2090.011719 C 2422.980469 2087.335938 2424.058594 2084.875 2425.742188 2082.847656 L 2470.523438 2048.296875 C 2472.042969 2047.125 2473.46875 2045.871094 2474.800781 2044.554688 L 2482.476562 2038.628906 C 2484.894531 2036.765625 2487.78125 2035.757812 2490.777344 2035.699219 C 2491.476562 2035.683594 2492.175781 2035.722656 2492.878906 2035.8125 C 2496.609375 2036.292969 2499.929688 2038.199219 2502.226562 2041.175781 L 2503.824219 2043.246094 C 2508.566406 2049.394531 2507.425781 2058.25 2501.277344 2062.992188 Z M 2540.105469 2150.980469 C 2533.453125 2156.113281 2524.480469 2156.113281 2520.515625 2150.972656 L 2490.367188 2111.957031 L 2514.902344 2093.03125 L 2545.25 2132.289062 C 2548.953125 2137.449219 2546.652344 2145.929688 2540.105469 2150.980469 Z M 2692.191406 2012.019531 C 2696.152344 2017.15625 2693.878906 2025.828125 2687.226562 2030.964844 C 2680.574219 2036.097656 2671.605469 2036.097656 2667.644531 2030.960938 L 2610.511719 1956.917969 C 2609.835938 1956.042969 2609.085938 1955.253906 2608.277344 1954.558594 C 2604.238281 1951.074219 2598.753906 1949.875 2593.714844 1951.195312 C 2591.699219 1951.726562 2589.753906 1952.660156 2587.996094 1954.015625 C 2586.644531 1955.0625 2585.503906 1956.28125 2584.582031 1957.617188 C 2581.328125 1962.34375 2580.816406 1968.542969 2583.375 1973.769531 C 2583.84375 1974.726562 2584.417969 1975.652344 2585.09375 1976.53125 L 2642.222656 2050.574219 C 2642.230469 2050.578125 2642.234375 2050.585938 2642.242188 2050.59375 L 2659.835938 2073.394531 C 2663.796875 2078.53125 2661.523438 2087.203125 2654.871094 2092.339844 C 2651.363281 2095.046875 2647.074219 2096.445312 2643.101562 2096.167969 C 2641.183594 2096.035156 2637.617188 2095.363281 2635.289062 2092.339844 C 2635.253906 2092.292969 2635.21875 2092.246094 2635.179688 2092.199219 L 2608.148438 2057.929688 L 2567.210938 2004.882812 C 2561.796875 1997.863281 2551.714844 1996.5625 2544.695312 2001.976562 C 2544.605469 2002.050781 2544.515625 2002.125 2544.425781 2002.195312 C 2544.277344 2002.300781 2544.132812 2002.410156 2543.988281 2002.523438 C 2537.027344 2008.011719 2535.839844 2018.101562 2541.328125 2025.0625 L 2582.835938 2077.679688 L 2602.066406 2102.605469 C 2604.402344 2105.628906 2604.148438 2109.25 2603.789062 2111.136719 C 2603.046875 2115.046875 2600.609375 2118.839844 2597.097656 2121.546875 C 2593.589844 2124.25 2589.296875 2125.648438 2585.328125 2125.375 C 2583.414062 2125.242188 2579.847656 2124.570312 2577.503906 2121.53125 L 2570.898438 2112.984375 C 2570.753906 2112.792969 2570.613281 2112.601562 2570.46875 2112.410156 L 2535.984375 2067.8125 C 2541.269531 2053.402344 2539.277344 2036.660156 2529.226562 2023.632812 L 2527.628906 2021.5625 C 2520.09375 2011.796875 2509.207031 2005.550781 2496.972656 2003.972656 C 2493.882812 2003.574219 2490.800781 2003.484375 2487.769531 2003.699219 C 2486.519531 1996.570312 2483.582031 1989.636719 2478.863281 1983.523438 L 2477.265625 1981.449219 C 2470.832031 1973.109375 2462.085938 1967.582031 2452.617188 1965.066406 C 2454.015625 1953.03125 2450.722656 1941.144531 2443.308594 1931.539062 L 2441.710938 1929.46875 C 2436.46875 1922.675781 2429.695312 1917.75 2422.242188 1914.792969 C 2422.773438 1912.804688 2423.179688 1910.769531 2423.445312 1908.691406 C 2425.023438 1896.457031 2421.742188 1884.339844 2414.207031 1874.570312 L 2412.605469 1872.5 C 2397.050781 1852.339844 2367.992188 1848.59375 2347.832031 1864.148438 L 2317.25 1887.746094 C 2317.027344 1887.410156 2316.796875 1887.078125 2316.546875 1886.75 L 2311.632812 1880.382812 C 2307.21875 1874.664062 2305.300781 1867.570312 2306.222656 1860.402344 C 2307.144531 1853.238281 2310.804688 1846.863281 2316.523438 1842.449219 L 2448.515625 1740.605469 C 2454.234375 1736.191406 2461.332031 1734.269531 2468.492188 1735.191406 C 2475.65625 1736.113281 2482.035156 1739.773438 2486.449219 1745.492188 L 2490.621094 1750.902344 C 2491.125 1751.554688 2491.671875 1752.160156 2492.25 1752.714844 L 2445.144531 1789.058594 C 2434.671875 1797.140625 2427.972656 1808.8125 2426.28125 1821.933594 C 2424.589844 1835.050781 2428.109375 1848.046875 2436.1875 1858.515625 C 2446.144531 1871.417969 2461.246094 1878.046875 2476.410156 1877.757812 C 2486.65625 1877.5625 2496.929688 1874.199219 2505.648438 1867.46875 L 2552.597656 1831.246094 Z M 2743.320312 1861.691406 C 2741.976562 1872.105469 2736.660156 1881.375 2728.347656 1887.789062 L 2670.996094 1932.042969 L 2578.03125 1811.648438 L 2578.199219 1811.523438 C 2585.21875 1806.109375 2586.515625 1796.027344 2581.101562 1789.007812 C 2575.6875 1781.988281 2565.605469 1780.6875 2558.585938 1786.101562 L 2486.058594 1842.066406 C 2482.378906 1844.90625 2477.808594 1846.144531 2473.191406 1845.546875 C 2468.574219 1844.953125 2464.472656 1842.597656 2461.628906 1838.914062 C 2458.785156 1835.230469 2457.546875 1830.660156 2458.144531 1826.042969 C 2458.742188 1821.429688 2461.097656 1817.324219 2464.78125 1814.480469 L 2537.308594 1758.519531 L 2546.65625 1751.304688 L 2549.394531 1751.304688 L 2549.394531 1749.195312 L 2583.050781 1723.226562 C 2606.546875 1705.097656 2640.40625 1709.460938 2658.542969 1732.949219 L 2685.898438 1768.40625 L 2735.460938 1832.640625 C 2741.871094 1840.964844 2744.664062 1851.277344 2743.320312 1861.691406 Z M 2799.628906 1863.269531 L 2688.730469 1719.542969 L 2683.957031 1713.351562 L 2640.527344 1657.066406 L 2686.285156 1621.761719 L 2686.285156 1627.054688 L 2694.742188 1627.054688 L 2848.125 1825.84375 Z M 2799.628906 1863.269531 " fill-opacity="1" fill-rule="nonzero"/></g></svg>