<svg xmlns="http://www.w3.org/2000/svg" xmlns:xlink="http://www.w3.org/1999/xlink" width="4032" zoomAndPan="magnify" viewBox="0 0 3024 2268.00001" height="3024" preserveAspectRatio="xMidYMid meet" version="1.0"><defs><clipPath id="3b9896a2d6"><path d="M 0.667969 5 L 2723.464844 5 L 2723.464844 2266 L 0.667969 2266 Z M 0.667969 5 " clip-rule="nonzero"/></clipPath></defs><g clip-path="url(#3b9896a2d6)"><path fill="#4b4b4b" d="M 760.308594 43.378906 C 753.585938 36.828125 743.414062 36.828125 736.691406 43.378906 C 730.144531 50.101562 730.144531 60.273438 736.691406 66.996094 C 742.363281 72.492188 750.546875 73.367188 756.976562 69.507812 L 944.050781 256.585938 L 944.050781 371.8125 L 1120.019531 547.777344 L 1565.375 547.777344 L 1664.585938 448.570312 L 2690.808594 448.570312 C 2692.679688 455.761719 2699.230469 461.140625 2707.003906 461.140625 C 2716.183594 461.140625 2723.722656 453.65625 2723.722656 444.417969 C 2723.722656 435.242188 2716.242188 427.699219 2707.003906 427.699219 C 2699.230469 427.699219 2692.679688 433.078125 2690.808594 440.269531 L 1661.195312 440.269531 L 1561.984375 539.476562 L 1123.46875 539.476562 L 952.355469 368.363281 L 952.355469 253.136719 L 762.824219 63.605469 C 766.679688 57.230469 765.863281 49.046875 760.308594 43.378906 M 50.535156 234.136719 C 41.355469 234.136719 33.8125 241.617188 33.8125 250.855469 C 33.8125 260.035156 41.296875 267.574219 50.535156 267.574219 C 58.308594 267.574219 64.855469 262.195312 66.726562 255.007812 L 590.246094 255.007812 L 692.84375 357.605469 L 692.84375 584.375 L 1052.847656 944.378906 L 1537.199219 944.378906 L 1640.5 1047.679688 L 2183.835938 1047.679688 C 2185.707031 1054.871094 2192.253906 1060.25 2200.03125 1060.25 C 2209.207031 1060.25 2216.75 1052.765625 2216.75 1043.527344 C 2216.75 1034.351562 2209.265625 1026.808594 2200.03125 1026.808594 C 2192.253906 1026.808594 2185.707031 1032.1875 2183.835938 1039.378906 L 1643.890625 1039.378906 L 1540.589844 936.078125 L 1056.238281 936.078125 L 701.089844 580.925781 L 701.089844 354.15625 L 593.636719 246.703125 L 66.726562 246.703125 C 64.855469 239.457031 58.308594 234.136719 50.535156 234.136719 Z M 940.542969 485.050781 C 933.820312 478.503906 923.648438 478.503906 916.925781 485.050781 C 910.378906 491.773438 910.378906 501.945312 916.925781 508.667969 C 922.597656 514.164062 930.78125 515.039062 937.210938 511.183594 L 1113.414062 687.382812 L 1615.183594 687.382812 L 1723.921875 578.644531 L 2084.453125 578.644531 C 2086.324219 585.835938 2092.871094 591.214844 2100.644531 591.214844 C 2109.824219 591.214844 2117.367188 583.734375 2117.367188 574.496094 C 2117.367188 565.316406 2109.882812 557.777344 2100.644531 557.777344 C 2092.871094 557.777344 2086.324219 563.152344 2084.453125 570.34375 L 1720.53125 570.34375 L 1611.792969 679.082031 L 1116.921875 679.082031 L 943.175781 505.335938 C 946.917969 498.90625 946.039062 490.78125 940.542969 485.050781 Z M 1189.414062 415.074219 C 1180.234375 415.074219 1172.695312 422.554688 1172.695312 431.792969 C 1172.695312 440.972656 1180.175781 448.511719 1189.414062 448.511719 C 1197.1875 448.511719 1203.738281 443.132812 1205.605469 435.941406 L 1503.347656 435.941406 L 1639.796875 299.496094 L 2123.445312 299.496094 L 2197.867188 225.074219 L 2547.929688 225.074219 C 2549.800781 232.265625 2556.351562 237.644531 2564.125 237.644531 C 2573.304688 237.644531 2580.84375 230.160156 2580.84375 220.921875 C 2580.84375 211.746094 2573.363281 204.203125 2564.125 204.203125 C 2556.351562 204.203125 2549.800781 209.582031 2547.929688 216.773438 L 2194.417969 216.773438 L 2119.996094 291.195312 L 1636.347656 291.195312 L 1499.898438 427.640625 L 1205.605469 427.640625 C 1203.738281 420.449219 1197.1875 415.074219 1189.414062 415.074219 Z M 1006.136719 19.992188 C 986.554688 0.640625 955.394531 0.640625 935.808594 19.992188 C 916.457031 39.578125 916.457031 70.738281 935.808594 90.320312 C 952.355469 106.691406 977.082031 109.203125 996.199219 97.980469 L 1181.695312 283.476562 L 1398.644531 283.476562 L 1519.367188 162.753906 L 1728.132812 162.753906 C 1733.6875 184.152344 1753.210938 200.050781 1776.246094 200.050781 C 1803.605469 200.050781 1825.9375 177.71875 1825.9375 150.359375 C 1825.9375 123 1803.605469 100.667969 1776.246094 100.667969 C 1753.152344 100.667969 1733.6875 116.570312 1728.132812 137.96875 L 1509.078125 137.96875 L 1388.355469 258.6875 L 1192.042969 258.6875 L 1013.796875 80.382812 C 1025.019531 61.324219 1022.449219 36.539062 1006.136719 19.992188 Z M 50.535156 281.898438 C 23.175781 281.898438 0.839844 304.230469 0.839844 331.589844 C 0.839844 358.949219 23.175781 381.28125 50.535156 381.28125 C 73.625 381.28125 93.09375 365.378906 98.648438 343.984375 L 493.609375 343.984375 L 559.671875 410.042969 L 559.671875 615.066406 L 1001.460938 1056.859375 L 1001.460938 1350.742188 L 1218.058594 1567.339844 C 1206.835938 1586.457031 1209.347656 1611.183594 1225.71875 1627.730469 C 1245.300781 1647.082031 1276.460938 1647.082031 1296.046875 1627.730469 C 1315.398438 1608.144531 1315.398438 1576.984375 1296.046875 1557.402344 C 1279.5 1541.03125 1254.773438 1538.519531 1235.65625 1549.742188 L 1026.308594 1340.394531 L 1026.308594 1046.511719 L 584.515625 604.71875 L 584.515625 399.695312 L 503.898438 319.078125 L 98.648438 319.078125 C 93.09375 297.800781 73.625 281.898438 50.535156 281.898438 Z M 1873.171875 1256.734375 C 1882.351562 1256.734375 1889.894531 1249.253906 1889.894531 1240.015625 C 1889.894531 1230.839844 1882.410156 1223.296875 1873.171875 1223.296875 C 1865.398438 1223.296875 1858.851562 1228.675781 1856.980469 1235.867188 L 1639.972656 1235.867188 L 1507.03125 1102.925781 L 1115.929688 1102.925781 L 1115.929688 1280.296875 L 1269.972656 1434.339844 L 1454.359375 1434.339844 C 1456.230469 1441.53125 1462.777344 1446.910156 1470.554688 1446.910156 C 1479.730469 1446.910156 1487.273438 1439.425781 1487.273438 1430.191406 C 1487.273438 1421.011719 1479.789062 1413.46875 1470.554688 1413.46875 C 1462.777344 1413.46875 1456.230469 1418.847656 1454.359375 1426.039062 L 1273.421875 1426.039062 L 1124.230469 1276.847656 L 1124.230469 1111.226562 L 1503.582031 1111.226562 L 1636.582031 1244.167969 L 1856.980469 1244.167969 C 1858.851562 1251.359375 1865.398438 1256.734375 1873.171875 1256.734375 Z M 50.535156 424.25 C 41.355469 424.25 33.8125 431.734375 33.8125 440.972656 C 33.8125 450.148438 41.296875 457.691406 50.535156 457.691406 C 58.308594 457.691406 64.855469 452.3125 66.726562 445.121094 L 405.101562 445.121094 L 446.140625 486.160156 L 446.140625 643.011719 L 264.09375 825.117188 L 264.09375 1349.863281 L 481.273438 1567.046875 L 481.273438 1811.648438 C 474.082031 1813.519531 468.707031 1820.066406 468.707031 1827.84375 C 468.707031 1837.019531 476.1875 1844.5625 485.425781 1844.5625 C 494.605469 1844.5625 502.144531 1837.078125 502.144531 1827.84375 C 502.144531 1820.066406 496.765625 1813.519531 489.574219 1811.648438 L 489.574219 1563.597656 L 272.394531 1346.414062 L 272.394531 828.507812 L 454.441406 646.460938 L 454.441406 482.710938 L 408.492188 436.761719 L 66.726562 436.761719 C 64.855469 429.628906 58.308594 424.25 50.535156 424.25 Z M 330.09375 627.695312 C 349.445312 608.109375 349.445312 576.949219 330.09375 557.367188 C 310.511719 538.015625 279.351562 538.015625 259.765625 557.367188 C 243.398438 573.910156 240.882812 598.640625 252.105469 617.757812 L 159.445312 710.417969 L 159.445312 1435.277344 L 301.15625 1576.984375 L 301.15625 1949.96875 C 279.757812 1955.519531 263.859375 1975.046875 263.859375 1998.082031 C 263.859375 2025.441406 286.191406 2047.773438 313.550781 2047.773438 C 340.910156 2047.773438 363.242188 2025.441406 363.242188 1998.082031 C 363.242188 1974.988281 347.339844 1955.519531 325.945312 1949.96875 L 325.945312 1566.695312 L 184.292969 1425.046875 L 184.292969 720.765625 L 269.644531 635.414062 C 288.820312 646.636719 313.609375 644.0625 330.09375 627.695312 Z M 187.390625 1570.554688 C 187.390625 1561.375 179.90625 1553.835938 170.671875 1553.835938 C 161.492188 1553.835938 153.953125 1561.316406 153.953125 1570.554688 C 153.953125 1578.332031 159.328125 1584.878906 166.519531 1586.75 L 166.519531 1868.355469 L 107.476562 1927.402344 L 107.476562 2232.917969 C 100.285156 2234.789062 94.90625 2241.335938 94.90625 2249.113281 C 94.90625 2258.289062 102.386719 2265.832031 111.625 2265.832031 C 120.804688 2265.832031 128.34375 2258.347656 128.34375 2249.113281 C 128.34375 2241.335938 122.96875 2234.789062 115.777344 2232.917969 L 115.777344 1930.792969 L 174.820312 1871.746094 L 174.820312 1586.75 C 182.070312 1584.878906 187.390625 1578.332031 187.390625 1570.554688 Z M 535.46875 800.679688 C 528.746094 794.132812 518.574219 794.132812 511.851562 800.679688 C 505.300781 807.40625 505.300781 817.578125 511.851562 824.300781 C 517.519531 829.796875 525.707031 830.671875 532.136719 826.8125 L 820.230469 1114.910156 L 820.230469 1400.726562 L 1165.621094 1746.113281 L 1799.863281 1746.113281 C 1801.734375 1753.304688 1808.28125 1758.683594 1816.058594 1758.683594 C 1825.234375 1758.683594 1832.777344 1751.199219 1832.777344 1741.964844 C 1832.777344 1732.785156 1825.292969 1725.242188 1816.058594 1725.242188 C 1808.28125 1725.242188 1801.734375 1730.621094 1799.863281 1737.8125 L 1169.070312 1737.8125 L 828.535156 1397.277344 L 828.535156 1111.460938 L 537.980469 820.910156 C 541.839844 814.535156 540.964844 806.410156 535.46875 800.679688 Z M 556.980469 728.773438 C 563.53125 722.050781 563.53125 711.878906 556.980469 705.15625 C 550.257812 698.609375 540.085938 698.609375 533.363281 705.15625 C 527.867188 710.828125 526.992188 719.011719 530.851562 725.441406 L 373.179688 883.113281 L 373.179688 1280.179688 L 605.445312 1512.445312 L 605.445312 2047.714844 C 598.253906 2049.585938 592.875 2056.132812 592.875 2063.90625 C 592.875 2073.085938 600.359375 2080.628906 609.597656 2080.628906 C 618.773438 2080.628906 626.316406 2073.144531 626.316406 2063.90625 C 626.316406 2056.132812 620.9375 2049.585938 613.746094 2047.714844 L 613.746094 1509.054688 L 381.480469 1276.789062 L 381.480469 886.5625 L 536.753906 731.289062 C 543.125 735.148438 551.3125 734.328125 556.980469 728.773438 Z M 637.132812 1022.542969 C 636.957031 985.828125 607.550781 956.480469 570.835938 956.246094 C 534.125 956.421875 504.777344 985.828125 504.542969 1022.542969 C 504.71875 1053.527344 525.648438 1079.308594 554.234375 1086.671875 L 554.234375 1307.773438 L 705.824219 1459.363281 L 705.824219 1666.722656 C 677.234375 1674.148438 656.308594 1699.871094 656.132812 1730.855469 C 656.308594 1767.570312 685.714844 1796.917969 722.425781 1797.148438 C 759.140625 1796.976562 788.488281 1767.570312 788.722656 1730.855469 C 788.546875 1699.871094 767.617188 1674.089844 739.03125 1666.722656 L 739.03125 1445.625 L 587.441406 1294.035156 L 587.441406 1086.671875 C 616.027344 1079.308594 636.957031 1053.527344 637.132812 1022.542969 Z M 50.535156 132.238281 C 41.355469 132.238281 33.8125 139.722656 33.8125 148.957031 C 33.8125 158.136719 41.296875 165.675781 50.535156 165.675781 C 58.308594 165.675781 64.855469 160.300781 66.726562 153.109375 L 656.132812 153.109375 L 816.492188 313.46875 L 816.492188 553.332031 L 1091.667969 828.507812 L 1732.75 828.507812 C 1734.621094 835.699219 1741.167969 841.078125 1748.945312 841.078125 C 1758.121094 841.078125 1765.664062 833.59375 1765.664062 824.359375 C 1765.664062 815.179688 1758.179688 807.636719 1748.945312 807.636719 C 1741.167969 807.636719 1734.621094 813.015625 1732.75 820.207031 L 1095.058594 820.207031 L 824.734375 549.882812 L 824.734375 310.019531 L 659.523438 144.808594 L 66.726562 144.808594 C 64.855469 137.558594 58.308594 132.238281 50.535156 132.238281 Z M 50.535156 132.238281 " fill-opacity="1" fill-rule="nonzero"/></g></svg>