<svg xmlns="http://www.w3.org/2000/svg" xmlns:xlink="http://www.w3.org/1999/xlink" width="4032" zoomAndPan="magnify" viewBox="0 0 3024 2268.00001" height="3024" preserveAspectRatio="xMidYMid meet" version="1.0"><defs><clipPath id="da59b5127d"><path d="M 2740 1076.824219 L 3022 1076.824219 L 3022 1950 L 2740 1950 Z M 2740 1076.824219 " clip-rule="nonzero"/></clipPath></defs><path fill="#4b4b4b" d="M 3014.355469 1951.1875 L 3017.980469 2266.996094 L 3021.601562 1951.1875 L 3017.980469 1948.167969 Z M 3014.355469 1951.1875 " fill-opacity="1" fill-rule="nonzero"/><path fill="#4b4b4b" d="M 143.09375 1559.898438 L 9.644531 1636.585938 L 9.644531 1790.566406 L 143.09375 1867.253906 L 276.542969 1790.566406 L 276.542969 1636.585938 Z M 4.210938 1631.753906 L 143.09375 1551.445312 C 190.191406 1578.617188 236.6875 1605.789062 283.789062 1632.359375 L 283.789062 1794.792969 C 236.6875 1821.964844 190.191406 1849.136719 143.09375 1875.707031 C 96.597656 1848.535156 49.496094 1821.359375 2.398438 1794.792969 C 2.398438 1740.445312 2.398438 1686.703125 2.398438 1632.359375 Z M 4.210938 1631.753906 " fill-opacity="1" fill-rule="nonzero"/><path fill="#4b4b4b" d="M 281.371094 1637.792969 L 144.902344 1716.898438 L 141.28125 1710.859375 L 277.75 1631.753906 Z M 281.371094 1637.792969 " fill-opacity="1" fill-rule="nonzero"/><path fill="#4b4b4b" d="M 7.832031 1631.753906 L 144.902344 1710.859375 L 141.28125 1716.898438 L 4.210938 1637.792969 Z M 7.832031 1631.753906 " fill-opacity="1" fill-rule="nonzero"/><path fill="#4b4b4b" d="M 144.902344 1716.898438 L 7.832031 1796 L 4.210938 1789.960938 L 141.28125 1710.859375 Z M 144.902344 1716.898438 " fill-opacity="1" fill-rule="nonzero"/><path fill="#4b4b4b" d="M 139.46875 1713.878906 L 146.714844 1713.878906 L 146.714844 1872.082031 L 139.46875 1872.082031 Z M 139.46875 1713.878906 " fill-opacity="1" fill-rule="nonzero"/><path fill="#4b4b4b" d="M 144.902344 1875.101562 L 7.832031 1954.207031 L 4.210938 1947.5625 L 141.28125 1869.066406 Z M 144.902344 1875.101562 " fill-opacity="1" fill-rule="nonzero"/><path fill="#4b4b4b" d="M 143.09375 2266.996094 L 139.46875 1872.082031 L 146.714844 1872.082031 Z M 143.09375 2266.996094 " fill-opacity="1" fill-rule="nonzero"/><path fill="#4b4b4b" d="M 283.183594 1794.792969 L 279.5625 2266.996094 L 275.9375 1792.980469 Z M 283.183594 1794.792969 " fill-opacity="1" fill-rule="nonzero"/><path fill="#4b4b4b" d="M 418.445312 1394.445312 L 557.328125 1474.757812 C 557.328125 1582.84375 557.328125 1690.929688 557.328125 1799.019531 C 463.730469 1744.671875 370.136719 1690.929688 276.542969 1636.585938 L 276.542969 1474.152344 L 417.234375 1393.238281 Z M 550.082031 1478.984375 L 416.632812 1401.691406 L 283.183594 1478.984375 L 283.183594 1632.960938 L 550.082031 1786.941406 Z M 550.082031 1478.984375 " fill-opacity="1" fill-rule="nonzero"/><path fill="#4b4b4b" d="M 277.75 1631.753906 L 414.820312 1552.652344 L 418.445312 1558.691406 L 281.371094 1637.792969 Z M 277.75 1631.753906 " fill-opacity="1" fill-rule="nonzero"/><path fill="#4b4b4b" d="M 551.894531 1637.792969 L 414.820312 1558.691406 L 418.445312 1552.652344 L 555.515625 1631.753906 Z M 551.894531 1637.792969 " fill-opacity="1" fill-rule="nonzero"/><path fill="#4b4b4b" d="M 281.371094 1473.550781 L 418.445312 1552.652344 L 414.820312 1558.691406 L 277.75 1479.585938 Z M 281.371094 1473.550781 " fill-opacity="1" fill-rule="nonzero"/><path fill="#4b4b4b" d="M 555.515625 1479.585938 L 418.445312 1558.691406 L 414.820312 1552.652344 L 551.894531 1473.550781 Z M 555.515625 1479.585938 " fill-opacity="1" fill-rule="nonzero"/><path fill="#4b4b4b" d="M 413.007812 1555.671875 L 420.253906 1555.671875 L 420.253906 1713.878906 L 413.007812 1713.878906 Z M 413.007812 1555.671875 " fill-opacity="1" fill-rule="nonzero"/><path fill="#4b4b4b" d="M 420.253906 1713.878906 L 416.632812 2266.996094 L 413.007812 1713.878906 Z M 420.253906 1713.878906 " fill-opacity="1" fill-rule="nonzero"/><path fill="#4b4b4b" d="M 691.984375 1710.859375 L 834.492188 1792.980469 L 690.777344 1875.707031 L 546.457031 1792.980469 L 690.171875 1709.652344 Z M 820.601562 1792.980469 L 690.777344 1718.105469 L 560.949219 1792.980469 L 690.777344 1867.855469 Z M 820.601562 1792.980469 " fill-opacity="1" fill-rule="nonzero"/><path fill="#4b4b4b" d="M 550.082031 1792.980469 L 557.328125 1792.980469 L 557.328125 1951.1875 L 550.082031 1951.1875 Z M 550.082031 1792.980469 " fill-opacity="1" fill-rule="nonzero"/><path fill="#4b4b4b" d="M 692.585938 1875.101562 L 555.515625 1954.207031 L 551.894531 1947.5625 L 688.964844 1869.066406 Z M 692.585938 1875.101562 " fill-opacity="1" fill-rule="nonzero"/><path fill="#4b4b4b" d="M 964.316406 1559.898438 L 830.867188 1637.191406 L 830.867188 1791.167969 L 964.316406 1867.855469 L 1097.765625 1791.167969 L 1097.765625 1637.191406 Z M 825.433594 1631.753906 L 964.316406 1551.445312 C 1011.414062 1578.617188 1057.910156 1605.789062 1105.011719 1632.359375 L 1105.011719 1794.792969 C 1057.910156 1821.964844 1011.414062 1849.136719 964.316406 1875.707031 C 917.214844 1848.535156 870.722656 1821.359375 823.621094 1794.792969 C 823.621094 1740.445312 823.621094 1686.703125 823.621094 1632.359375 Z M 825.433594 1631.753906 " fill-opacity="1" fill-rule="nonzero"/><path fill="#4b4b4b" d="M 1103.199219 1637.792969 L 966.128906 1716.898438 L 962.503906 1710.859375 L 1099.578125 1631.753906 Z M 1103.199219 1637.792969 " fill-opacity="1" fill-rule="nonzero"/><path fill="#4b4b4b" d="M 829.054688 1631.753906 L 966.128906 1710.859375 L 962.503906 1716.898438 L 825.433594 1637.792969 Z M 829.054688 1631.753906 " fill-opacity="1" fill-rule="nonzero"/><path fill="#4b4b4b" d="M 966.128906 1710.859375 L 1103.199219 1789.960938 L 1099.578125 1796 L 962.503906 1716.898438 Z M 966.128906 1710.859375 " fill-opacity="1" fill-rule="nonzero"/><path fill="#4b4b4b" d="M 966.128906 1716.898438 L 829.054688 1796 L 825.433594 1789.960938 L 962.503906 1710.859375 Z M 966.128906 1716.898438 " fill-opacity="1" fill-rule="nonzero"/><path fill="#4b4b4b" d="M 960.691406 1713.878906 L 967.9375 1713.878906 L 967.9375 1872.082031 L 960.691406 1872.082031 Z M 960.691406 1713.878906 " fill-opacity="1" fill-rule="nonzero"/><path fill="#4b4b4b" d="M 693.796875 1872.082031 L 690.777344 2266.996094 L 687.152344 1872.082031 Z M 693.796875 1872.082031 " fill-opacity="1" fill-rule="nonzero"/><path fill="#4b4b4b" d="M 966.128906 1875.101562 L 829.054688 1954.207031 L 825.433594 1947.5625 L 962.503906 1869.066406 Z M 966.128906 1875.101562 " fill-opacity="1" fill-rule="nonzero"/><path fill="#4b4b4b" d="M 1238.460938 2026.0625 L 1371.910156 1949.375 L 1371.910156 1795.394531 L 1238.460938 1718.707031 L 1105.011719 1795.394531 L 1105.011719 1949.375 Z M 1376.738281 1954.207031 L 1237.855469 2034.515625 C 1191.359375 2007.34375 1144.261719 1980.171875 1097.160156 1953.601562 L 1097.160156 1791.167969 C 1143.65625 1763.996094 1190.757812 1736.824219 1237.855469 1710.253906 C 1284.957031 1737.425781 1331.453125 1764.601562 1378.550781 1791.167969 L 1378.550781 1953.601562 Z M 1376.738281 1954.207031 " fill-opacity="1" fill-rule="nonzero"/><path fill="#4b4b4b" d="M 1103.199219 1789.960938 L 1241.480469 1869.667969 L 1241.480469 2029.6875 L 1234.835938 2029.6875 L 1234.835938 1873.894531 L 1099.578125 1796 Z M 1103.199219 1789.960938 " fill-opacity="1" fill-rule="nonzero"/><path fill="#4b4b4b" d="M 1103.199219 1954.207031 L 964.316406 2034.515625 C 917.214844 2007.34375 870.722656 1980.171875 823.621094 1953.601562 L 823.621094 1792.980469 L 830.867188 1792.980469 L 830.867188 1948.773438 L 964.316406 2026.0625 L 1099.578125 1948.167969 Z M 1103.199219 1954.207031 " fill-opacity="1" fill-rule="nonzero"/><path fill="#4b4b4b" d="M 1105.011719 1951.1875 L 1101.386719 2266.996094 L 1097.765625 1951.1875 Z M 1105.011719 1951.1875 " fill-opacity="1" fill-rule="nonzero"/><path fill="#4b4b4b" d="M 1378.550781 1951.1875 L 1374.929688 2266.996094 L 1371.304688 1951.1875 Z M 1378.550781 1951.1875 " fill-opacity="1" fill-rule="nonzero"/><path fill="#4b4b4b" d="M 1371.304688 1792.980469 L 1371.304688 1478.984375 L 1237.855469 1401.691406 L 1105.011719 1478.984375 L 1105.011719 1634.773438 L 1097.765625 1634.773438 L 1097.765625 1474.757812 L 1238.460938 1393.84375 C 1285.558594 1421.015625 1332.054688 1447.582031 1379.15625 1474.757812 L 1379.15625 1792.980469 Z M 1371.304688 1792.980469 " fill-opacity="1" fill-rule="nonzero"/><path fill="#4b4b4b" d="M 1103.199219 1473.550781 L 1239.667969 1552.652344 L 1236.648438 1558.691406 L 1099.578125 1479.585938 Z M 1103.199219 1473.550781 " fill-opacity="1" fill-rule="nonzero"/><path fill="#4b4b4b" d="M 1376.738281 1479.585938 L 1239.667969 1558.691406 L 1236.648438 1552.652344 L 1373.117188 1473.550781 Z M 1376.738281 1479.585938 " fill-opacity="1" fill-rule="nonzero"/><path fill="#4b4b4b" d="M 1239.667969 1558.691406 L 1103.199219 1637.792969 L 1099.578125 1631.753906 L 1236.648438 1552.652344 Z M 1239.667969 1558.691406 " fill-opacity="1" fill-rule="nonzero"/><path fill="#4b4b4b" d="M 1234.835938 1555.671875 L 1241.480469 1555.671875 L 1241.480469 1713.878906 L 1234.835938 1713.878906 Z M 1234.835938 1555.671875 " fill-opacity="1" fill-rule="nonzero"/><path fill="#4b4b4b" d="M 1645.449219 1476.566406 L 1645.449219 1320.777344 L 1512 1243.484375 L 1378.550781 1320.171875 L 1378.550781 1475.964844 L 1371.304688 1475.964844 L 1371.304688 1315.945312 C 1418.40625 1288.773438 1464.898438 1261.601562 1512 1235.03125 C 1559.097656 1262.203125 1605.59375 1289.378906 1652.695312 1315.945312 L 1652.695312 1475.964844 L 1645.449219 1475.964844 Z M 1645.449219 1476.566406 " fill-opacity="1" fill-rule="nonzero"/><path fill="#4b4b4b" d="M 1650.882812 1321.382812 L 1513.8125 1400.484375 L 1510.1875 1394.445312 L 1647.261719 1315.34375 Z M 1650.882812 1321.382812 " fill-opacity="1" fill-rule="nonzero"/><path fill="#4b4b4b" d="M 1376.738281 1315.34375 L 1513.8125 1394.445312 L 1510.1875 1400.484375 L 1373.117188 1321.382812 Z M 1376.738281 1315.34375 " fill-opacity="1" fill-rule="nonzero"/><path fill="#4b4b4b" d="M 1513.8125 1394.445312 L 1650.882812 1473.550781 L 1647.261719 1479.585938 L 1510.1875 1400.484375 Z M 1513.8125 1394.445312 " fill-opacity="1" fill-rule="nonzero"/><path fill="#4b4b4b" d="M 1513.8125 1400.484375 L 1376.738281 1479.585938 L 1373.117188 1473.550781 L 1510.1875 1394.445312 Z M 1513.8125 1400.484375 " fill-opacity="1" fill-rule="nonzero"/><path fill="#4b4b4b" d="M 1508.375 1397.464844 L 1515.621094 1397.464844 L 1515.621094 1555.671875 L 1508.375 1555.671875 Z M 1508.375 1397.464844 " fill-opacity="1" fill-rule="nonzero"/><path fill="#4b4b4b" d="M 1782.519531 1555.671875 L 1782.519531 1241.675781 L 1649.070312 1164.382812 L 1513.8125 1242.277344 L 1510.1875 1236.238281 L 1649.070312 1155.929688 C 1696.171875 1183.101562 1742.667969 1209.671875 1789.765625 1236.84375 L 1789.765625 1555.066406 L 1782.519531 1555.066406 Z M 1782.519531 1555.671875 " fill-opacity="1" fill-rule="nonzero"/><path fill="#4b4b4b" d="M 1787.351562 1242.277344 L 1650.882812 1321.382812 L 1647.261719 1315.34375 L 1784.332031 1236.238281 Z M 1787.351562 1242.277344 " fill-opacity="1" fill-rule="nonzero"/><path fill="#4b4b4b" d="M 1645.449219 1482.605469 L 1515.621094 1557.484375 L 1515.621094 1707.234375 L 1645.449219 1632.359375 Z M 1510.1875 1552.652344 L 1652.695312 1470.53125 C 1652.695312 1526.082031 1652.695312 1581.636719 1652.695312 1636.585938 L 1508.375 1719.914062 L 1508.375 1553.859375 Z M 1510.1875 1552.652344 " fill-opacity="1" fill-rule="nonzero"/><path fill="#4b4b4b" d="M 1513.8125 1558.691406 L 1376.738281 1637.792969 L 1373.117188 1631.753906 L 1510.1875 1552.652344 Z M 1513.8125 1558.691406 " fill-opacity="1" fill-rule="nonzero"/><path fill="#4b4b4b" d="M 1376.738281 1631.753906 L 1513.8125 1710.859375 L 1510.1875 1716.898438 L 1373.117188 1637.792969 Z M 1376.738281 1631.753906 " fill-opacity="1" fill-rule="nonzero"/><path fill="#4b4b4b" d="M 1513.8125 1716.898438 L 1376.738281 1796 L 1373.117188 1789.960938 L 1510.1875 1710.859375 Z M 1513.8125 1716.898438 " fill-opacity="1" fill-rule="nonzero"/><path fill="#4b4b4b" d="M 1376.738281 1789.960938 L 1513.8125 1869.066406 L 1510.1875 1875.101562 L 1373.117188 1796 Z M 1376.738281 1789.960938 " fill-opacity="1" fill-rule="nonzero"/><path fill="#4b4b4b" d="M 1513.8125 1875.101562 L 1376.738281 1954.207031 L 1373.117188 1947.5625 L 1510.1875 1869.066406 Z M 1513.8125 1875.101562 " fill-opacity="1" fill-rule="nonzero"/><path fill="#4b4b4b" d="M 1508.375 1713.878906 L 1515.621094 1713.878906 L 1515.621094 1872.082031 L 1508.375 1872.082031 Z M 1508.375 1713.878906 " fill-opacity="1" fill-rule="nonzero"/><path fill="#4b4b4b" d="M 1652.695312 1792.980469 L 1649.070312 2266.996094 L 1645.449219 1792.980469 L 1649.070312 1789.960938 Z M 1652.695312 1792.980469 " fill-opacity="1" fill-rule="nonzero"/><path fill="#4b4b4b" d="M 1515.621094 1872.082031 L 1512 2266.996094 L 1508.375 1872.082031 L 1512 1868.460938 Z M 1515.621094 1872.082031 " fill-opacity="1" fill-rule="nonzero"/><path fill="#4b4b4b" d="M 1650.882812 1473.550781 L 1787.351562 1552.652344 L 1784.332031 1558.691406 L 1647.261719 1479.585938 Z M 1650.882812 1473.550781 " fill-opacity="1" fill-rule="nonzero"/><path fill="#4b4b4b" d="M 1787.351562 1558.691406 L 1650.882812 1637.792969 L 1647.261719 1631.753906 L 1784.332031 1552.652344 Z M 1787.351562 1558.691406 " fill-opacity="1" fill-rule="nonzero"/><path fill="#4b4b4b" d="M 1924.421875 1473.550781 L 2066.929688 1555.671875 L 1922.613281 1639 C 1874.910156 1611.222656 1826.601562 1583.449219 1778.292969 1555.671875 L 1922.613281 1472.339844 Z M 2052.4375 1555.671875 L 1922.613281 1480.796875 L 1792.785156 1555.671875 L 1922.613281 1630.546875 Z M 2052.4375 1555.671875 " fill-opacity="1" fill-rule="nonzero"/><path fill="#4b4b4b" d="M 1782.519531 1555.671875 L 1789.164062 1555.671875 L 1789.164062 2029.6875 L 1782.519531 2029.6875 Z M 1782.519531 1555.671875 " fill-opacity="1" fill-rule="nonzero"/><path fill="#4b4b4b" d="M 2056.0625 1555.671875 L 2063.308594 1555.671875 L 2063.308594 2029.6875 L 2056.0625 2029.6875 Z M 2056.0625 1555.671875 " fill-opacity="1" fill-rule="nonzero"/><path fill="#4b4b4b" d="M 1650.882812 1631.753906 L 1787.351562 1710.859375 L 1784.332031 1716.898438 L 1647.261719 1637.792969 Z M 1650.882812 1631.753906 " fill-opacity="1" fill-rule="nonzero"/><path fill="#4b4b4b" d="M 1924.421875 1637.792969 L 1787.351562 1716.898438 L 1784.332031 1710.859375 L 1920.800781 1631.753906 Z M 1924.421875 1637.792969 " fill-opacity="1" fill-rule="nonzero"/><path fill="#4b4b4b" d="M 1787.351562 1716.898438 L 1650.882812 1796 L 1647.261719 1789.960938 L 1784.332031 1710.859375 Z M 1787.351562 1716.898438 " fill-opacity="1" fill-rule="nonzero"/><path fill="#4b4b4b" d="M 1787.351562 1710.859375 L 2061.496094 1869.066406 L 2057.871094 1875.101562 L 1784.332031 1716.898438 Z M 1787.351562 1710.859375 " fill-opacity="1" fill-rule="nonzero"/><path fill="#4b4b4b" d="M 2061.496094 1875.101562 L 1787.351562 2033.308594 L 1784.332031 2026.667969 L 2057.871094 1869.066406 Z M 2061.496094 1875.101562 " fill-opacity="1" fill-rule="nonzero"/><path fill="#4b4b4b" d="M 2196.753906 1322.589844 L 2063.308594 1399.277344 L 2063.308594 1553.253906 L 2330.203125 1707.234375 L 2330.203125 1399.277344 Z M 2057.871094 1394.445312 L 2196.753906 1314.136719 C 2243.855469 1341.308594 2290.351562 1367.875 2337.449219 1395.050781 C 2337.449219 1503.136719 2337.449219 1611.222656 2337.449219 1719.3125 C 2243.855469 1664.964844 2150.257812 1611.222656 2056.664062 1556.878906 L 2056.664062 1394.445312 Z M 2057.871094 1394.445312 " fill-opacity="1" fill-rule="nonzero"/><path fill="#4b4b4b" d="M 2335.035156 1400.484375 L 2198.566406 1479.585938 L 2194.945312 1473.550781 L 2332.015625 1394.445312 Z M 2335.035156 1400.484375 " fill-opacity="1" fill-rule="nonzero"/><path fill="#4b4b4b" d="M 2061.496094 1394.445312 L 2198.566406 1473.550781 L 2194.945312 1479.585938 L 2057.871094 1400.484375 Z M 2061.496094 1394.445312 " fill-opacity="1" fill-rule="nonzero"/><path fill="#4b4b4b" d="M 2193.132812 1476.566406 L 2200.378906 1476.566406 L 2200.378906 1634.773438 L 2193.132812 1634.773438 Z M 2193.132812 1476.566406 " fill-opacity="1" fill-rule="nonzero"/><path fill="#4b4b4b" d="M 2335.035156 1716.898438 L 2061.496094 1875.101562 L 2057.871094 1869.066406 L 2331.414062 1710.859375 Z M 2335.035156 1716.898438 " fill-opacity="1" fill-rule="nonzero"/><path fill="#4b4b4b" d="M 2193.132812 1634.773438 L 2200.378906 1634.773438 L 2200.378906 1792.980469 L 2193.132812 1792.980469 Z M 2193.132812 1634.773438 " fill-opacity="1" fill-rule="nonzero"/><path fill="#4b4b4b" d="M 2193.132812 1792.980469 L 2200.378906 1792.980469 L 2200.378906 1951.1875 L 2193.132812 1951.1875 Z M 2193.132812 1792.980469 " fill-opacity="1" fill-rule="nonzero"/><path fill="#4b4b4b" d="M 2198.566406 1954.207031 L 2061.496094 2033.308594 L 2057.871094 2026.667969 L 2194.945312 1947.5625 Z M 2198.566406 1954.207031 " fill-opacity="1" fill-rule="nonzero"/><path fill="#4b4b4b" d="M 2335.035156 1875.101562 L 2198.566406 1954.207031 L 2194.945312 1947.5625 L 2332.015625 1869.066406 Z M 2335.035156 1875.101562 " fill-opacity="1" fill-rule="nonzero"/><path fill="#4b4b4b" d="M 2330.203125 1713.878906 L 2336.847656 1713.878906 L 2336.847656 2029.6875 L 2330.203125 2029.6875 Z M 2330.203125 1713.878906 " fill-opacity="1" fill-rule="nonzero"/><path fill="#4b4b4b" d="M 2200.378906 1951.1875 L 2196.753906 2266.996094 L 2193.132812 1951.1875 Z M 2200.378906 1951.1875 " fill-opacity="1" fill-rule="nonzero"/><path fill="#4b4b4b" d="M 2603.746094 1555.671875 L 2603.746094 1399.878906 L 2470.296875 1323.191406 L 2335.035156 1400.484375 L 2331.410156 1394.445312 L 2470.296875 1314.136719 C 2517.394531 1341.308594 2563.890625 1368.480469 2610.992188 1395.050781 L 2610.992188 1555.066406 L 2603.746094 1555.066406 Z M 2603.746094 1555.671875 " fill-opacity="1" fill-rule="nonzero"/><path fill="#4b4b4b" d="M 2740.816406 1634.773438 L 2740.816406 1320.777344 L 2607.367188 1243.484375 L 2472.105469 1321.382812 L 2468.484375 1315.34375 L 2607.367188 1235.636719 L 2748.0625 1316.550781 L 2748.0625 1634.773438 Z M 2740.816406 1634.773438 " fill-opacity="1" fill-rule="nonzero"/><g clip-path="url(#da59b5127d)"><path fill="#4b4b4b" d="M 2880.90625 1085.277344 L 2747.457031 1161.96875 L 2747.457031 1317.757812 L 2740.210938 1317.757812 L 2740.210938 1157.738281 C 2787.3125 1130.566406 2833.808594 1103.394531 2880.90625 1076.824219 C 2928.007812 1104 2974.503906 1130.566406 3021.601562 1157.738281 L 3021.601562 1949.980469 L 3014.355469 1949.980469 L 3014.355469 1162.570312 C 2970.277344 1136.605469 2925.589844 1111.246094 2880.90625 1085.277344 Z M 2880.90625 1085.277344 " fill-opacity="1" fill-rule="nonzero"/></g><path fill="#4b4b4b" d="M 3019.1875 1163.777344 L 2882.71875 1242.277344 L 2879.097656 1236.238281 L 3015.5625 1157.738281 Z M 3019.1875 1163.777344 " fill-opacity="1" fill-rule="nonzero"/><path fill="#4b4b4b" d="M 2746.25 1157.136719 L 2882.71875 1236.238281 L 2879.097656 1242.277344 L 2742.628906 1163.777344 Z M 2746.25 1157.136719 " fill-opacity="1" fill-rule="nonzero"/><path fill="#4b4b4b" d="M 2884.53125 1239.257812 L 2884.53125 1397.464844 L 2877.886719 1397.464844 L 2877.285156 1239.257812 Z M 2884.53125 1239.257812 " fill-opacity="1" fill-rule="nonzero"/><path fill="#4b4b4b" d="M 2335.035156 1394.445312 L 2609.179688 1552.652344 L 2605.554688 1558.691406 L 2331.414062 1400.484375 Z M 2335.035156 1394.445312 " fill-opacity="1" fill-rule="nonzero"/><path fill="#4b4b4b" d="M 2746.25 1321.382812 L 2472.105469 1479.585938 L 2468.484375 1473.550781 L 2742.628906 1315.34375 Z M 2746.25 1321.382812 " fill-opacity="1" fill-rule="nonzero"/><path fill="#4b4b4b" d="M 2466.671875 1476.566406 L 2473.917969 1476.566406 L 2473.917969 1634.773438 L 2466.671875 1634.773438 Z M 2466.671875 1476.566406 " fill-opacity="1" fill-rule="nonzero"/><path fill="#4b4b4b" d="M 2609.179688 1558.691406 L 2335.035156 1716.898438 L 2331.414062 1710.859375 L 2605.554688 1552.652344 Z M 2609.179688 1558.691406 " fill-opacity="1" fill-rule="nonzero"/><path fill="#4b4b4b" d="M 2335.035156 1710.859375 L 2609.179688 1869.066406 L 2605.554688 1875.101562 L 2331.414062 1716.898438 Z M 2335.035156 1710.859375 " fill-opacity="1" fill-rule="nonzero"/><path fill="#4b4b4b" d="M 2603.746094 1555.671875 L 2610.992188 1555.671875 L 2610.992188 1872.082031 L 2603.746094 1872.082031 Z M 2603.746094 1555.671875 " fill-opacity="1" fill-rule="nonzero"/><path fill="#4b4b4b" d="M 2472.105469 1796 L 2335.035156 1875.101562 L 2332.015625 1869.066406 L 2468.484375 1789.960938 Z M 2472.105469 1796 " fill-opacity="1" fill-rule="nonzero"/><path fill="#4b4b4b" d="M 2466.671875 1634.773438 L 2473.917969 1634.773438 L 2473.917969 1792.980469 L 2466.671875 1792.980469 Z M 2466.671875 1634.773438 " fill-opacity="1" fill-rule="nonzero"/><path fill="#4b4b4b" d="M 2609.179688 1875.101562 L 2333.222656 2033.914062 L 2057.871094 1875.101562 L 2061.496094 1869.066406 L 2333.222656 2026.0625 L 2605.554688 1869.066406 Z M 2609.179688 1875.101562 " fill-opacity="1" fill-rule="nonzero"/><path fill="#4b4b4b" d="M 2466.671875 1792.980469 L 2473.917969 1792.980469 L 2473.917969 1951.1875 L 2466.671875 1951.1875 Z M 2466.671875 1792.980469 " fill-opacity="1" fill-rule="nonzero"/><path fill="#4b4b4b" d="M 2609.179688 1394.445312 L 2746.25 1473.550781 L 2742.628906 1479.585938 L 2605.554688 1400.484375 Z M 2609.179688 1394.445312 " fill-opacity="1" fill-rule="nonzero"/><path fill="#4b4b4b" d="M 2882.71875 1242.277344 L 2746.25 1321.382812 L 2742.628906 1315.34375 L 2879.097656 1236.238281 Z M 2882.71875 1242.277344 " fill-opacity="1" fill-rule="nonzero"/><path fill="#4b4b4b" d="M 2882.71875 1400.484375 L 2746.25 1479.585938 L 2742.628906 1473.550781 L 2879.097656 1394.445312 Z M 2882.71875 1400.484375 " fill-opacity="1" fill-rule="nonzero"/><path fill="#4b4b4b" d="M 2882.71875 1394.445312 L 3017.980469 1472.339844 L 3017.980469 1480.796875 L 2879.097656 1400.484375 Z M 2882.71875 1394.445312 " fill-opacity="1" fill-rule="nonzero"/><path fill="#4b4b4b" d="M 2746.25 1473.550781 L 3018.582031 1631.152344 L 3018.582031 1639 L 2742.628906 1479.585938 Z M 2746.25 1473.550781 " fill-opacity="1" fill-rule="nonzero"/><path fill="#4b4b4b" d="M 2746.25 1637.792969 L 2609.179688 1716.898438 L 2605.554688 1710.859375 L 2742.628906 1631.753906 Z M 2746.25 1637.792969 " fill-opacity="1" fill-rule="nonzero"/><path fill="#4b4b4b" d="M 2740.816406 1634.773438 L 2748.0625 1634.773438 L 2748.0625 1951.1875 L 2740.816406 1951.1875 Z M 2740.816406 1634.773438 " fill-opacity="1" fill-rule="nonzero"/><path fill="#4b4b4b" d="M 2609.179688 1710.859375 L 2746.25 1789.960938 L 2742.628906 1796 L 2605.554688 1716.898438 Z M 2609.179688 1710.859375 " fill-opacity="1" fill-rule="nonzero"/><path fill="#4b4b4b" d="M 2746.25 1796 L 2609.179688 1875.101562 L 2605.554688 1869.066406 L 2742.628906 1789.960938 Z M 2746.25 1796 " fill-opacity="1" fill-rule="nonzero"/><path fill="#4b4b4b" d="M 3017.980469 1639 L 2746.25 1796 L 2742.628906 1789.960938 L 3017.980469 1630.546875 Z M 3017.980469 1639 " fill-opacity="1" fill-rule="nonzero"/><path fill="#4b4b4b" d="M 2877.285156 1555.671875 L 2884.53125 1555.671875 L 2884.53125 1713.878906 L 2877.285156 1713.878906 Z M 2877.285156 1555.671875 " fill-opacity="1" fill-rule="nonzero"/><path fill="#4b4b4b" d="M 2877.285156 1713.878906 L 2884.53125 1713.878906 L 2884.53125 1872.082031 L 2877.285156 1872.082031 Z M 2877.285156 1713.878906 " fill-opacity="1" fill-rule="nonzero"/><path fill="#4b4b4b" d="M 2746.25 1789.960938 L 3018.582031 1946.960938 L 3018.582031 1955.414062 L 2742.628906 1796 Z M 2746.25 1789.960938 " fill-opacity="1" fill-rule="nonzero"/><path fill="#4b4b4b" d="M 2882.71875 1875.101562 L 2746.25 1954.207031 L 2742.628906 1947.5625 L 2879.097656 1869.066406 Z M 2882.71875 1875.101562 " fill-opacity="1" fill-rule="nonzero"/><path fill="#4b4b4b" d="M 557.328125 1951.1875 L 553.703125 2266.996094 L 550.082031 1951.1875 L 554.308594 1948.167969 Z M 557.328125 1951.1875 " fill-opacity="1" fill-rule="nonzero"/><path fill="#4b4b4b" d="M 1645.449219 1634.773438 L 1652.695312 1634.773438 L 1652.695312 1792.980469 L 1645.449219 1792.980469 Z M 1645.449219 1634.773438 " fill-opacity="1" fill-rule="nonzero"/><path fill="#4b4b4b" d="M 1789.164062 2029.6875 L 1785.539062 2266.996094 L 1782.519531 2029.6875 L 1786.144531 2027.269531 Z M 1789.164062 2029.6875 " fill-opacity="1" fill-rule="nonzero"/><path fill="#4b4b4b" d="M 2063.308594 2029.6875 L 2059.683594 2266.996094 L 2056.0625 2029.6875 L 2059.683594 2027.875 Z M 2063.308594 2029.6875 " fill-opacity="1" fill-rule="nonzero"/><path fill="#4b4b4b" d="M 2610.992188 1872.082031 L 2607.367188 2266.996094 L 2603.746094 1872.082031 Z M 2610.992188 1872.082031 " fill-opacity="1" fill-rule="nonzero"/><path fill="#4b4b4b" d="M 2748.0625 1951.1875 L 2744.4375 2266.996094 L 2740.816406 1951.1875 L 2744.4375 1948.167969 Z M 2748.0625 1951.1875 " fill-opacity="1" fill-rule="nonzero"/><path fill="#4b4b4b" d="M 2884.53125 1872.082031 L 2880.90625 2266.996094 L 2877.285156 1872.082031 Z M 2884.53125 1872.082031 " fill-opacity="1" fill-rule="nonzero"/><path fill="#4b4b4b" d="M 2.398438 1792.980469 L 9.644531 1792.980469 L 9.644531 1951.1875 L 2.398438 1951.1875 Z M 2.398438 1792.980469 " fill-opacity="1" fill-rule="nonzero"/><path fill="#4b4b4b" d="M 9.644531 1951.1875 L 6.019531 2266.996094 L 2.398438 1951.1875 L 6.625 1948.167969 Z M 9.644531 1951.1875 " fill-opacity="1" fill-rule="nonzero"/></svg>